<?xml version="1.0" encoding="UTF-8" standalone="no"?>
<!-- Created with Inkscape (http://www.inkscape.org/) -->

<svg
   version="1.1"
   id="svg1"
   width="324"
   height="186.66667"
   viewBox="0 0 324 186.66667"
   xmlns="http://www.w3.org/2000/svg"
   xmlns:svg="http://www.w3.org/2000/svg">
  <defs
     id="defs1" />
  <g
     id="g1">
    <rect
       id="rect1"
       x="0"
       y="0"
       width="1"
       height="1"
       style="fill:#ffffff;fill-opacity:1;fill-rule:nonzero"
       transform="matrix(319.84,0,0,-183.36,2.2773333,185.18933)" />
    <path
       id="path1"
       d="m 94,1325.2 c 97.871,43.55 107.547,33.87 64,-64"
       style="fill:none;stroke:#231f20;stroke-width:10;stroke-linecap:butt;stroke-linejoin:miter;stroke-miterlimit:10;stroke-dasharray:none;stroke-opacity:1"
       transform="matrix(0.13333333,0,0,-0.13333333,0,186.66667)" />
    <path
       id="path2"
       d="m 158,1261.2 c -43.547,-97.87 -33.875,-107.55 64,-64"
       style="fill:none;stroke:#231f20;stroke-width:10;stroke-linecap:butt;stroke-linejoin:miter;stroke-miterlimit:10;stroke-dasharray:none;stroke-opacity:1"
       transform="matrix(0.13333333,0,0,-0.13333333,0,186.66667)" />
    <path
       id="path3"
       d="m 222,1197.2 c 97.871,43.55 107.547,33.87 64,-64"
       style="fill:none;stroke:#231f20;stroke-width:10;stroke-linecap:butt;stroke-linejoin:miter;stroke-miterlimit:10;stroke-dasharray:none;stroke-opacity:1"
       transform="matrix(0.13333333,0,0,-0.13333333,0,186.66667)" />
    <path
       id="path4"
       d="m 286,1133.2 c -43.547,-97.87 -33.875,-107.55 64,-64"
       style="fill:none;stroke:#231f20;stroke-width:10;stroke-linecap:butt;stroke-linejoin:miter;stroke-miterlimit:10;stroke-dasharray:none;stroke-opacity:1"
       transform="matrix(0.13333333,0,0,-0.13333333,0,186.66667)" />
    <path
       id="path5"
       d="m 350,1069.2 c 97.871,43.55 107.547,33.87 64,-64"
       style="fill:none;stroke:#231f20;stroke-width:10;stroke-linecap:butt;stroke-linejoin:miter;stroke-miterlimit:10;stroke-dasharray:none;stroke-opacity:1"
       transform="matrix(0.13333333,0,0,-0.13333333,0,186.66667)" />
    <path
       id="path6"
       d="M 414,1005.2 C 370.453,907.328 380.125,897.652 478,941.199"
       style="fill:none;stroke:#231f20;stroke-width:10;stroke-linecap:butt;stroke-linejoin:miter;stroke-miterlimit:10;stroke-dasharray:none;stroke-opacity:1"
       transform="matrix(0.13333333,0,0,-0.13333333,0,186.66667)" />
    <path
       id="path7"
       d="m 478,941.199 c 97.871,43.551 107.547,33.875 64,-64"
       style="fill:none;stroke:#231f20;stroke-width:10;stroke-linecap:butt;stroke-linejoin:miter;stroke-miterlimit:10;stroke-dasharray:none;stroke-opacity:1"
       transform="matrix(0.13333333,0,0,-0.13333333,0,186.66667)" />
    <path
       id="path8"
       d="m 542,877.199 c -43.547,-97.871 -33.875,-107.547 64,-64"
       style="fill:none;stroke:#231f20;stroke-width:10;stroke-linecap:butt;stroke-linejoin:miter;stroke-miterlimit:10;stroke-dasharray:none;stroke-opacity:1"
       transform="matrix(0.13333333,0,0,-0.13333333,0,186.66667)" />
    <path
       id="path9"
       d="m 606,813.199 c 97.871,43.551 107.547,33.875 64,-64"
       style="fill:none;stroke:#231f20;stroke-width:10;stroke-linecap:butt;stroke-linejoin:miter;stroke-miterlimit:10;stroke-dasharray:none;stroke-opacity:1"
       transform="matrix(0.13333333,0,0,-0.13333333,0,186.66667)" />
    <path
       id="path10"
       d="m 670,749.199 c -43.547,-97.871 -33.875,-107.547 64,-64"
       style="fill:none;stroke:#231f20;stroke-width:10;stroke-linecap:butt;stroke-linejoin:miter;stroke-miterlimit:10;stroke-dasharray:none;stroke-opacity:1"
       transform="matrix(0.13333333,0,0,-0.13333333,0,186.66667)" />
    <path
       id="path11"
       d="m 734,685.199 c 42.441,100 57.559,100 100,0"
       style="fill:none;stroke:#231f20;stroke-width:10;stroke-linecap:butt;stroke-linejoin:miter;stroke-miterlimit:10;stroke-dasharray:none;stroke-opacity:1"
       transform="matrix(0.13333333,0,0,-0.13333333,0,186.66667)" />
    <path
       id="path12"
       d="m 834,685.199 c 42.441,-100 57.559,-100 100,0"
       style="fill:none;stroke:#231f20;stroke-width:10;stroke-linecap:butt;stroke-linejoin:miter;stroke-miterlimit:10;stroke-dasharray:none;stroke-opacity:1"
       transform="matrix(0.13333333,0,0,-0.13333333,0,186.66667)" />
    <path
       id="path13"
       d="m 934,685.199 c 42.441,100 57.559,100 100,0"
       style="fill:none;stroke:#231f20;stroke-width:10;stroke-linecap:butt;stroke-linejoin:miter;stroke-miterlimit:10;stroke-dasharray:none;stroke-opacity:1"
       transform="matrix(0.13333333,0,0,-0.13333333,0,186.66667)" />
    <path
       id="path14"
       d="m 1034,685.199 c 42.44,-100 57.56,-100 100,0"
       style="fill:none;stroke:#231f20;stroke-width:10;stroke-linecap:butt;stroke-linejoin:miter;stroke-miterlimit:10;stroke-dasharray:none;stroke-opacity:1"
       transform="matrix(0.13333333,0,0,-0.13333333,0,186.66667)" />
    <path
       id="path15"
       d="m 1134,685.199 c 42.44,100 57.56,100 100,0"
       style="fill:none;stroke:#231f20;stroke-width:10;stroke-linecap:butt;stroke-linejoin:miter;stroke-miterlimit:10;stroke-dasharray:none;stroke-opacity:1"
       transform="matrix(0.13333333,0,0,-0.13333333,0,186.66667)" />
    <path
       id="path16"
       d="m 1234,685.199 c 42.44,-100 57.56,-100 100,0"
       style="fill:none;stroke:#231f20;stroke-width:10;stroke-linecap:butt;stroke-linejoin:miter;stroke-miterlimit:10;stroke-dasharray:none;stroke-opacity:1"
       transform="matrix(0.13333333,0,0,-0.13333333,0,186.66667)" />
    <path
       id="path17"
       d="m 1334,685.199 c 42.44,100 57.56,100 100,0"
       style="fill:none;stroke:#231f20;stroke-width:10;stroke-linecap:butt;stroke-linejoin:miter;stroke-miterlimit:10;stroke-dasharray:none;stroke-opacity:1"
       transform="matrix(0.13333333,0,0,-0.13333333,0,186.66667)" />
    <path
       id="path18"
       d="m 1434,685.199 c 42.44,-100 57.56,-100 100,0"
       style="fill:none;stroke:#231f20;stroke-width:10;stroke-linecap:butt;stroke-linejoin:miter;stroke-miterlimit:10;stroke-dasharray:none;stroke-opacity:1"
       transform="matrix(0.13333333,0,0,-0.13333333,0,186.66667)" />
    <path
       id="path19"
       d="m 1534,685.199 c -43.55,97.875 -33.87,107.551 64,64"
       style="fill:none;stroke:#231f20;stroke-width:10;stroke-linecap:butt;stroke-linejoin:miter;stroke-miterlimit:10;stroke-dasharray:none;stroke-opacity:1"
       transform="matrix(0.13333333,0,0,-0.13333333,0,186.66667)" />
    <path
       id="path20"
       d="m 1598,749.199 c 97.87,-43.547 107.55,-33.871 64,64"
       style="fill:none;stroke:#231f20;stroke-width:10;stroke-linecap:butt;stroke-linejoin:miter;stroke-miterlimit:10;stroke-dasharray:none;stroke-opacity:1"
       transform="matrix(0.13333333,0,0,-0.13333333,0,186.66667)" />
    <path
       id="path21"
       d="m 1662,813.199 c -43.55,97.875 -33.87,107.551 64,64"
       style="fill:none;stroke:#231f20;stroke-width:10;stroke-linecap:butt;stroke-linejoin:miter;stroke-miterlimit:10;stroke-dasharray:none;stroke-opacity:1"
       transform="matrix(0.13333333,0,0,-0.13333333,0,186.66667)" />
    <path
       id="path22"
       d="m 1726,877.199 c 97.87,-43.547 107.55,-33.871 64,64"
       style="fill:none;stroke:#231f20;stroke-width:10;stroke-linecap:butt;stroke-linejoin:miter;stroke-miterlimit:10;stroke-dasharray:none;stroke-opacity:1"
       transform="matrix(0.13333333,0,0,-0.13333333,0,186.66667)" />
    <path
       id="path23"
       d="m 1790,941.199 c -43.55,97.871 -33.87,107.551 64,64.001"
       style="fill:none;stroke:#231f20;stroke-width:10;stroke-linecap:butt;stroke-linejoin:miter;stroke-miterlimit:10;stroke-dasharray:none;stroke-opacity:1"
       transform="matrix(0.13333333,0,0,-0.13333333,0,186.66667)" />
    <path
       id="path24"
       d="m 1854,1005.2 c 97.87,-43.548 107.55,-33.872 64,64"
       style="fill:none;stroke:#231f20;stroke-width:10;stroke-linecap:butt;stroke-linejoin:miter;stroke-miterlimit:10;stroke-dasharray:none;stroke-opacity:1"
       transform="matrix(0.13333333,0,0,-0.13333333,0,186.66667)" />
    <path
       id="path25"
       d="m 1918,1069.2 c -43.55,97.87 -33.87,107.55 64,64"
       style="fill:none;stroke:#231f20;stroke-width:10;stroke-linecap:butt;stroke-linejoin:miter;stroke-miterlimit:10;stroke-dasharray:none;stroke-opacity:1"
       transform="matrix(0.13333333,0,0,-0.13333333,0,186.66667)" />
    <path
       id="path26"
       d="m 1982,1133.2 c 97.87,-43.55 107.55,-33.87 64,64"
       style="fill:none;stroke:#231f20;stroke-width:10;stroke-linecap:butt;stroke-linejoin:miter;stroke-miterlimit:10;stroke-dasharray:none;stroke-opacity:1"
       transform="matrix(0.13333333,0,0,-0.13333333,0,186.66667)" />
    <path
       id="path27"
       d="m 2046,1197.2 c -43.55,97.87 -33.87,107.55 64,64"
       style="fill:none;stroke:#231f20;stroke-width:10;stroke-linecap:butt;stroke-linejoin:miter;stroke-miterlimit:10;stroke-dasharray:none;stroke-opacity:1"
       transform="matrix(0.13333333,0,0,-0.13333333,0,186.66667)" />
    <path
       id="path28"
       d="m 2110,1261.2 c 97.87,-43.55 107.55,-33.87 64,64"
       style="fill:none;stroke:#231f20;stroke-width:10;stroke-linecap:butt;stroke-linejoin:miter;stroke-miterlimit:10;stroke-dasharray:none;stroke-opacity:1"
       transform="matrix(0.13333333,0,0,-0.13333333,0,186.66667)" />
    <path
       id="path29"
       d="M 414,365.199 94,45.1992"
       style="fill:none;stroke:#231f20;stroke-width:10;stroke-linecap:butt;stroke-linejoin:miter;stroke-miterlimit:10;stroke-dasharray:19.676, 19.676;stroke-dashoffset:0;stroke-opacity:1"
       transform="matrix(0.13333333,0,0,-0.13333333,0,186.66667)" />
    <path
       id="path30"
       d="m 431.676,382.879 -49.496,-21.215 21.215,-7.07 7.07,-21.215 z"
       style="fill:#231f20;fill-opacity:1;fill-rule:nonzero;stroke:#231f20;stroke-width:10;stroke-linecap:butt;stroke-linejoin:miter;stroke-miterlimit:10;stroke-dasharray:none;stroke-opacity:1;paint-order:stroke fill markers"
       transform="matrix(0.13333333,0,0,-0.13333333,0,186.66667)" />
    <path
       id="path31"
       d="m 734,685.199 -320,-320"
       style="fill:none;stroke:#231f20;stroke-width:10;stroke-linecap:butt;stroke-linejoin:miter;stroke-miterlimit:10;stroke-dasharray:19.676, 19.676;stroke-dashoffset:0;stroke-opacity:1"
       transform="matrix(0.13333333,0,0,-0.13333333,0,186.66667)" />
    <path
       id="path32"
       d="m 1854,365.199 -320,320"
       style="fill:none;stroke:#231f20;stroke-width:10;stroke-linecap:butt;stroke-linejoin:miter;stroke-miterlimit:10;stroke-dasharray:19.676, 19.676;stroke-dashoffset:0;stroke-opacity:1"
       transform="matrix(0.13333333,0,0,-0.13333333,0,186.66667)" />
    <path
       id="path33"
       d="m 1871.68,347.523 -21.22,49.497 -7.07,-21.215 -21.21,-7.071 z"
       style="fill:#231f20;fill-opacity:1;fill-rule:nonzero;stroke:#231f20;stroke-width:10;stroke-linecap:butt;stroke-linejoin:miter;stroke-miterlimit:10;stroke-dasharray:none;stroke-opacity:1;paint-order:stroke fill markers"
       transform="matrix(0.13333333,0,0,-0.13333333,0,186.66667)" />
    <path
       id="path34"
       d="M 2174,45.1992 1854,365.199"
       style="fill:none;stroke:#231f20;stroke-width:10;stroke-linecap:butt;stroke-linejoin:miter;stroke-miterlimit:10;stroke-dasharray:19.676, 19.676;stroke-dashoffset:0;stroke-opacity:1"
       transform="matrix(0.13333333,0,0,-0.13333333,0,186.66667)" />
    <g
       id="g34"
       aria-label="kk&#10;′&#10;q&#10;pp&#10;′"
       transform="matrix(1.3333333,0,0,1.3333333,75.8932,52.373333)">
      <path
         id="path35"
         d="m 4.0322484,-9.5964063 c 0.011719,-0.058594 0.046875,-0.140625 0.046875,-0.2109375 0,-0.140625 -0.1523437,-0.140625 -0.1757812,-0.140625 -0.011719,0 -0.5273438,0.035156 -0.7851563,0.070312 -0.2460937,0.011719 -0.46875,0.035156 -0.7265625,0.058594 -0.3398437,0.023437 -0.4453125,0.035156 -0.4453125,0.2929687 0,0.1523438 0.1523438,0.1523438 0.2929688,0.1523438 0.7265625,0 0.7265625,0.1289062 0.7265625,0.2695312 0,0.058594 0,0.082031 -0.070312,0.3398438 L 0.84474844,-0.56125 c -0.0585938,0.22265625 -0.0585938,0.24609375 -0.0585938,0.328125 0,0.31640625 0.24609366,0.375 0.38671876,0.375 0.4101562,0 0.4921875,-0.31640625 0.609375,-0.76171875 L 2.4502172,-3.3034375 c 1.03125,0.1171875 1.6523437,0.5507812 1.6523437,1.2421875 0,0.082031 0,0.140625 -0.046875,0.3515625 -0.058594,0.2226562 -0.058594,0.3867187 -0.058594,0.46875 0,0.83203125 0.5507812,1.3828125 1.2773437,1.3828125 0.6679688,0 1.0078125,-0.59765625 1.125,-0.796875 0.3046875,-0.5390625 0.4921875,-1.3359375 0.4921875,-1.3945313 0,-0.070312 -0.058594,-0.1289062 -0.1523437,-0.1289062 -0.1289063,0 -0.140625,0.058594 -0.1992188,0.28125 -0.1992187,0.75 -0.5039062,1.7578125 -1.2304687,1.7578125 -0.2929688,0 -0.4804688,-0.140625 -0.4804688,-0.69140625 0,-0.26953125 0.058594,-0.58593755 0.1171875,-0.80859375 0.058594,-0.2578125 0.058594,-0.2695313 0.058594,-0.4335938 0,-0.8554687 -0.7617188,-1.3242187 -2.0742188,-1.5 0.515625,-0.3164062 1.03125,-0.8671875 1.2304688,-1.0898437 0.8203125,-0.9140625 1.3710937,-1.3710938 2.0390625,-1.3710938 0.328125,0 0.4101562,0.082031 0.515625,0.1640625 -0.5273438,0.058594 -0.7382813,0.4335938 -0.7382813,0.7265625 0,0.3398438 0.28125,0.4570313 0.4804688,0.4570313 0.3867187,0 0.7265625,-0.328125 0.7265625,-0.796875 0,-0.4101563 -0.328125,-0.84375 -0.9726563,-0.84375 -0.7851562,0 -1.4296875,0.5625 -2.4492187,1.7109375 -0.1523438,0.1757812 -0.6796875,0.7148437 -1.2070313,0.9140625 z m 95.6396486,0 c 0.01172,-0.058594 0.04687,-0.140625 0.04687,-0.2109375 0,-0.140625 -0.152344,-0.140625 -0.175781,-0.140625 -0.01172,0 -0.527344,0.035156 -0.785157,0.070312 -0.246093,0.011719 -0.46875,0.035156 -0.726562,0.058594 -0.339844,0.023437 -0.445313,0.035156 -0.445313,0.2929687 0,0.1523438 0.152344,0.1523438 0.292969,0.1523438 0.726563,0 0.726563,0.1289062 0.726563,0.2695312 0,0.058594 0,0.082031 -0.07031,0.3398438 l -2.050781,8.203125 c -0.05859,0.22265625 -0.05859,0.24609375 -0.05859,0.328125 0,0.31640625 0.246094,0.375 0.386719,0.375 0.410156,0 0.492187,-0.31640625 0.609375,-0.76171875 l 0.667969,-2.68359375 c 1.03125,0.1171875 1.652343,0.5507812 1.652343,1.2421875 0,0.082031 0,0.140625 -0.04687,0.3515625 -0.05859,0.2226562 -0.05859,0.3867187 -0.05859,0.46875 0,0.83203125 0.550779,1.3828125 1.277339,1.3828125 0.66797,0 1.00782,-0.59765625 1.125,-0.796875 0.30469,-0.5390625 0.49219,-1.3359375 0.49219,-1.3945313 0,-0.070312 -0.0586,-0.1289062 -0.15234,-0.1289062 -0.12891,0 -0.14063,0.058594 -0.19922,0.28125 -0.19922,0.75 -0.50391,1.7578125 -1.23047,1.7578125 -0.29297,0 -0.48047,-0.140625 -0.48047,-0.69140625 0,-0.26953125 0.0586,-0.58593755 0.11719,-0.80859375 0.0586,-0.2578125 0.0586,-0.2695313 0.0586,-0.4335938 0,-0.8554687 -0.761716,-1.3242187 -2.074216,-1.5 0.515625,-0.3164062 1.03125,-0.8671875 1.230469,-1.0898437 0.820317,-0.9140625 1.371097,-1.3710938 2.039067,-1.3710938 0.32812,0 0.41015,0.082031 0.51562,0.1640625 -0.52734,0.058594 -0.73828,0.4335938 -0.73828,0.7265625 0,0.3398438 0.28125,0.4570313 0.48047,0.4570313 0.38672,0 0.72656,-0.328125 0.72656,-0.796875 0,-0.4101563 -0.32812,-0.84375 -0.97266,-0.84375 -0.78515,0 -1.42968,0.5625 -2.449214,1.7109375 -0.152344,0.1757812 -0.679688,0.7148437 -1.207032,0.9140625 z m 0,0"
         style="fill:#231f20;fill-opacity:1;fill-rule:nonzero;stroke:none" />
      <path
         id="path36"
         d="m 105.95901,-10.015352 c 0.0469,-0.117187 0.0937,-0.210937 0.0937,-0.304687 0,-0.292969 -0.25782,-0.527344 -0.57422,-0.527344 -0.28125,0 -0.45703,0.1875 -0.52735,0.445313 l -1.18359,4.3593747 c 0,0.011719 -0.0352,0.1289062 -0.0352,0.1289062 0,0.1171875 0.25782,0.1875 0.33985,0.1875 0.0586,0 0.0703,-0.035156 0.1289,-0.1640625 z m 0,0"
         style="fill:#231f20;fill-opacity:1;fill-rule:nonzero;stroke:none" />
      <path
         id="path37"
         d="m 54.088889,6.891875 c 0,-0.070312 -0.05859,-0.1289063 -0.128906,-0.1289063 -0.117188,0 -0.679688,0.5273438 -0.949219,1.0195313 -0.257812,-0.6445313 -0.703125,-1.03125 -1.324219,-1.03125 -1.617187,0 -3.363281,2.0976562 -3.363281,4.21875 0,1.417969 0.832031,2.25 1.804688,2.25 0.761718,0 1.394531,-0.574219 1.6875,-0.902344 l 0.02344,0.01172 -0.550781,2.15625 -0.128906,0.515625 c -0.128907,0.433594 -0.339844,0.433594 -1.019532,0.445312 -0.152343,0 -0.304687,0 -0.304687,0.269532 0,0.105468 0.09375,0.140625 0.1875,0.140625 0.210937,0 0.46875,-0.02344 0.667969,-0.02344 h 1.464843 c 0.210938,0 0.457032,0.02344 0.667969,0.02344 0.08203,0 0.257813,0 0.257813,-0.269532 0,-0.140625 -0.117188,-0.140625 -0.328125,-0.140625 -0.679688,0 -0.714844,-0.105468 -0.714844,-0.210937 0,-0.08203 0.01172,-0.09375 0.05859,-0.28125 z m -2.027344,4.476562 c -0.07031,0.246094 -0.07031,0.28125 -0.269531,0.550782 -0.316406,0.398437 -0.949219,1.019531 -1.617187,1.019531 -0.597657,0 -0.925782,-0.539063 -0.925782,-1.382813 0,-0.785156 0.445313,-2.3906245 0.714844,-2.9999995 0.492188,-0.9960938 1.171875,-1.5117188 1.722656,-1.5117188 0.949219,0 1.136719,1.171875 1.136719,1.2890625 0,0.011719 -0.04687,0.1992188 -0.05859,0.2226563 z m -83.361328,51.407227 c -0.105469,0.433594 -0.164062,0.550781 -0.75,0.550781 -0.175781,0 -0.316406,0 -0.316406,0.269532 0,0.03516 0.01172,0.140625 0.175781,0.140625 0.1875,0 0.386719,-0.02344 0.574219,-0.02344 h 0.609375 c 0.304687,0 1.03125,0.02344 1.335937,0.02344 0.09375,0 0.257813,0 0.257813,-0.257813 0,-0.152344 -0.09375,-0.152344 -0.339844,-0.152344 -0.65625,0 -0.703125,-0.105468 -0.703125,-0.210937 0,-0.175781 0.644531,-2.648438 0.726563,-2.976563 0.164062,0.410157 0.550781,0.960938 1.289062,0.960938 1.628906,0 3.375,-2.109375 3.375,-4.21875 0,-1.3125 -0.75,-2.25 -1.816406,-2.25 -0.925781,0 -1.699219,0.890625 -1.851563,1.089844 -0.117187,-0.714844 -0.679687,-1.089844 -1.253906,-1.089844 -0.410156,0 -0.738281,0.199219 -1.019531,0.75 -0.257813,0.515625 -0.457031,1.394531 -0.457031,1.441406 0,0.05859 0.05859,0.140625 0.164062,0.140625 0.105469,0 0.128906,-0.02344 0.210938,-0.351562 0.210937,-0.84375 0.492187,-1.6875 1.066406,-1.6875 0.328125,0 0.445312,0.222656 0.445312,0.65625 0,0.339843 -0.04687,0.492187 -0.105468,0.75 z m 2.472656,-6.292969 c 0.105469,-0.398437 0.503907,-0.820312 0.738282,-1.019531 0.152343,-0.140625 0.632812,-0.539062 1.171875,-0.539062 0.632812,0 0.925781,0.632812 0.925781,1.371093 0,0.691407 -0.410156,2.308594 -0.761719,3.058594 -0.363281,0.773438 -1.019531,1.464844 -1.6875,1.464844 -0.972656,0 -1.125,-1.242188 -1.125,-1.289063 0,-0.04687 0.02344,-0.164062 0.03516,-0.234375 z m 172.848637,6.292969 c -0.10547,0.433594 -0.16407,0.550781 -0.75,0.550781 -0.17578,0 -0.31641,0 -0.31641,0.269532 0,0.03516 0.0117,0.140625 0.17578,0.140625 0.1875,0 0.38672,-0.02344 0.57422,-0.02344 h 0.60938 c 0.30468,0 1.03125,0.02344 1.33593,0.02344 0.0937,0 0.25782,0 0.25782,-0.257813 0,-0.152344 -0.0937,-0.152344 -0.33985,-0.152344 -0.65625,0 -0.70312,-0.105468 -0.70312,-0.210937 0,-0.175781 0.64453,-2.648438 0.72656,-2.976563 0.16406,0.410157 0.55078,0.960938 1.28906,0.960938 1.62891,0 3.375,-2.109375 3.375,-4.21875 0,-1.3125 -0.75,-2.25 -1.8164,-2.25 -0.92579,0 -1.69922,0.890625 -1.85157,1.089844 -0.11718,-0.714844 -0.67968,-1.089844 -1.2539,-1.089844 -0.41016,0 -0.73828,0.199219 -1.01953,0.75 -0.25782,0.515625 -0.45704,1.394531 -0.45704,1.441406 0,0.05859 0.0586,0.140625 0.16407,0.140625 0.10547,0 0.1289,-0.02344 0.21093,-0.351562 0.21094,-0.84375 0.49219,-1.6875 1.06641,-1.6875 0.32813,0 0.44531,0.222656 0.44531,0.65625 0,0.339843 -0.0469,0.492187 -0.10547,0.75 z m 2.47265,-6.292969 c 0.10547,-0.398437 0.50391,-0.820312 0.73828,-1.019531 0.15235,-0.140625 0.63282,-0.539062 1.17188,-0.539062 0.63281,0 0.92578,0.632812 0.92578,1.371093 0,0.691407 -0.41016,2.308594 -0.76172,3.058594 -0.36328,0.773438 -1.01953,1.464844 -1.6875,1.464844 -0.97265,0 -1.125,-1.242188 -1.125,-1.289063 0,-0.04687 0.0234,-0.164062 0.0352,-0.234375 z m 0,0"
         style="fill:#231f20;fill-opacity:1;fill-rule:nonzero;stroke:none" />
      <path
         id="path38"
         d="m 152.99807,51.065703 c 0.0469,-0.117187 0.0937,-0.210937 0.0937,-0.304687 0,-0.292969 -0.25781,-0.527344 -0.57422,-0.527344 -0.28125,0 -0.45703,0.1875 -0.52734,0.445312 l -1.1836,4.359375 c 0,0.01172 -0.0351,0.128907 -0.0351,0.128907 0,0.117187 0.25781,0.1875 0.33984,0.1875 0.0586,0 0.0703,-0.03516 0.12891,-0.164063 z m 0,0"
         style="fill:#231f20;fill-opacity:1;fill-rule:nonzero;stroke:none" />
    </g>
    <rect
       id="rect38"
       x="0"
       y="0"
       width="1"
       height="1"
       style="fill:#ffffff;fill-opacity:1;fill-rule:nonzero"
       transform="matrix(320.8,0,0,-0.64,1.7973333,1.8293333)" />
    <rect
       id="rect39"
       x="0"
       y="0"
       width="1"
       height="1"
       style="fill:#ffffff;fill-opacity:1;fill-rule:nonzero"
       transform="matrix(0.64,0,0,-184,1.7973333,185.50933)" />
    <rect
       id="rect40"
       x="0"
       y="0"
       width="1"
       height="1"
       style="fill:#ffffff;fill-opacity:1;fill-rule:nonzero"
       transform="matrix(0.64,0,0,-184,321.95733,185.50933)" />
    <rect
       id="rect41"
       x="0"
       y="0"
       width="1"
       height="1"
       style="fill:#ffffff;fill-opacity:1;fill-rule:nonzero"
       transform="matrix(320.8,0,0,-0.64,1.7973333,185.82933)" />
  </g>
</svg>
