<?xml version="1.0" encoding="UTF-8" standalone="no"?>
<!-- Created with Inkscape (http://www.inkscape.org/) -->

<svg
   version="1.1"
   id="svg1"
   width="324"
   height="226.66667"
   viewBox="0 0 324 226.66667"
   xmlns="http://www.w3.org/2000/svg"
   xmlns:svg="http://www.w3.org/2000/svg">
  <defs
     id="defs1" />
  <g
     id="g1">
    <rect
       id="rect1"
       x="0"
       y="0"
       width="1"
       height="1"
       style="fill:#ffffff;fill-opacity:1;fill-rule:nonzero"
       transform="matrix(319.84,0,0,-223.2,2.2773333,225.02933)" />
    <path
       id="path1"
       d="M 654.398,446 94.3984,46"
       style="fill:none;stroke:#231f20;stroke-width:10;stroke-linecap:butt;stroke-linejoin:miter;stroke-miterlimit:10;stroke-dasharray:none;stroke-opacity:1"
       transform="matrix(0.13333333,0,0,-0.13333333,0,226.66667)" />
    <path
       id="path2"
       d="m 674.742,460.531 -52.308,-12.789 19.761,-10.461 3.485,-22.086 z"
       style="fill:#231f20;fill-opacity:1;fill-rule:nonzero;stroke:#231f20;stroke-width:10;stroke-linecap:butt;stroke-linejoin:miter;stroke-miterlimit:10;stroke-dasharray:none;stroke-opacity:1;paint-order:stroke fill markers"
       transform="matrix(0.13333333,0,0,-0.13333333,0,226.66667)" />
    <path
       id="path3"
       d="M 1214.4,846 654.398,446"
       style="fill:none;stroke:#231f20;stroke-width:10;stroke-linecap:butt;stroke-linejoin:miter;stroke-miterlimit:10;stroke-dasharray:none;stroke-opacity:1"
       transform="matrix(0.13333333,0,0,-0.13333333,0,226.66667)" />
    <path
       id="path4"
       d="m 1774.4,446 -560,400"
       style="fill:none;stroke:#231f20;stroke-width:10;stroke-linecap:butt;stroke-linejoin:miter;stroke-miterlimit:10;stroke-dasharray:none;stroke-opacity:1"
       transform="matrix(0.13333333,0,0,-0.13333333,0,226.66667)" />
    <path
       id="path5"
       d="m 1794.74,431.469 -29.06,45.336 -3.48,-22.086 -19.77,-10.461 z"
       style="fill:#231f20;fill-opacity:1;fill-rule:nonzero;stroke:#231f20;stroke-width:10;stroke-linecap:butt;stroke-linejoin:miter;stroke-miterlimit:10;stroke-dasharray:none;stroke-opacity:1;paint-order:stroke fill markers"
       transform="matrix(0.13333333,0,0,-0.13333333,0,226.66667)" />
    <path
       id="path6"
       d="m 2334.4,46 -560,400"
       style="fill:none;stroke:#231f20;stroke-width:10;stroke-linecap:butt;stroke-linejoin:miter;stroke-miterlimit:10;stroke-dasharray:none;stroke-opacity:1"
       transform="matrix(0.13333333,0,0,-0.13333333,0,226.66667)" />
    <path
       id="path7"
       d="m 1214.4,846 c -100,42.441 -100,57.559 0,100"
       style="fill:none;stroke:#231f20;stroke-width:10;stroke-linecap:butt;stroke-linejoin:miter;stroke-miterlimit:10;stroke-dasharray:none;stroke-opacity:1"
       transform="matrix(0.13333333,0,0,-0.13333333,0,226.66667)" />
    <path
       id="path8"
       d="m 1214.4,946 c 100,42.441 100,57.56 0,100"
       style="fill:none;stroke:#231f20;stroke-width:10;stroke-linecap:butt;stroke-linejoin:miter;stroke-miterlimit:10;stroke-dasharray:none;stroke-opacity:1"
       transform="matrix(0.13333333,0,0,-0.13333333,0,226.66667)" />
    <path
       id="path9"
       d="m 1214.4,1046 c -100,42.44 -100,57.56 0,100"
       style="fill:none;stroke:#231f20;stroke-width:10;stroke-linecap:butt;stroke-linejoin:miter;stroke-miterlimit:10;stroke-dasharray:none;stroke-opacity:1"
       transform="matrix(0.13333333,0,0,-0.13333333,0,226.66667)" />
    <path
       id="path10"
       d="m 1214.4,1146 c 100,42.44 100,57.56 0,100"
       style="fill:none;stroke:#231f20;stroke-width:10;stroke-linecap:butt;stroke-linejoin:miter;stroke-miterlimit:10;stroke-dasharray:none;stroke-opacity:1"
       transform="matrix(0.13333333,0,0,-0.13333333,0,226.66667)" />
    <path
       id="path11"
       d="m 1214.4,1246 c -100,42.44 -100,57.56 0,100"
       style="fill:none;stroke:#231f20;stroke-width:10;stroke-linecap:butt;stroke-linejoin:miter;stroke-miterlimit:10;stroke-dasharray:none;stroke-opacity:1"
       transform="matrix(0.13333333,0,0,-0.13333333,0,226.66667)" />
    <path
       id="path12"
       d="m 1214.4,1346 c 100,42.44 100,57.56 0,100"
       style="fill:none;stroke:#231f20;stroke-width:10;stroke-linecap:butt;stroke-linejoin:miter;stroke-miterlimit:10;stroke-dasharray:none;stroke-opacity:1"
       transform="matrix(0.13333333,0,0,-0.13333333,0,226.66667)" />
    <path
       id="path13"
       d="m 1214.4,1446 c -100,42.44 -100,57.56 0,100"
       style="fill:none;stroke:#231f20;stroke-width:10;stroke-linecap:butt;stroke-linejoin:miter;stroke-miterlimit:10;stroke-dasharray:none;stroke-opacity:1"
       transform="matrix(0.13333333,0,0,-0.13333333,0,226.66667)" />
    <path
       id="path14"
       d="m 1214.4,1546 c 100,42.44 100,57.56 0,100"
       style="fill:none;stroke:#231f20;stroke-width:10;stroke-linecap:butt;stroke-linejoin:miter;stroke-miterlimit:10;stroke-dasharray:none;stroke-opacity:1"
       transform="matrix(0.13333333,0,0,-0.13333333,0,226.66667)" />
    <g
       id="g14"
       aria-label="pp&#10;′&#10;˜&#10;V(q)"
       transform="matrix(1.3333333,0,0,1.3333333,54.6136,152.2136)">
      <path
         id="path15"
         d="m 0.74976094,1.8524953 c -0.0585938,0.1992188 -0.0703125,0.2109375 -0.09375,0.2226563 -0.0820313,0.035156 -0.24609375,0.035156 -0.375,0.035156 -0.234375,0 -0.4921875,0 -0.4921875,0.3984375 0,0.1640625 0.10546875,0.2695313 0.26953125,0.2695313 0.41015625,0 0.890625,-0.035156 1.32421871,-0.035156 0.4921875,0 1.0429688,0.035156 1.5234375,0.035156 0.1054688,0 0.375,0 0.375,-0.4101563 0,-0.2460937 -0.2226562,-0.2578125 -0.375,-0.2578125 -0.1992187,0 -0.421875,0 -0.609375,-0.011719 l 0.609375,-2.49609379 c 0.2226563,0.19921875 0.6914063,0.515625 1.453125,0.515625 2.4960938,0 4.0429688,-2.27343751 4.0429688,-4.23046871 0,-1.7695313 -1.3125,-2.3671875 -2.5078125,-2.3671875 -1.0195313,0 -1.7578125,0.5507812 -1.9921875,0.7734375 -0.5507813,-0.7734375 -1.4882813,-0.7734375 -1.6523438,-0.7734375 -0.5273437,0 -0.9492187,0.2929687 -1.2421875,0.8203125 -0.36328121,0.5625 -0.55078121,1.3476562 -0.55078121,1.4179687 0,0.1992188 0.22265625,0.1992188 0.3515625,0.1992188 0.15234375,0 0.21093751,0 0.28125001,-0.070312 0.023437,-0.035156 0.023437,-0.058594 0.1171875,-0.421875 0.28125,-1.1484375 0.609375,-1.4296875 0.9726562,-1.4296875 0.1640625,0 0.328125,0.058594 0.328125,0.5273437 0,0.2109375 -0.023437,0.421875 -0.082031,0.6210938 z m 3.29296876,-6.890625 c 0.421875,-0.4804687 1.0898437,-0.9257812 1.78125,-0.9257812 0.890625,0 0.9609375,0.7734375 0.9609375,1.0898437 0,0.7382813 -0.4921875,2.5078125 -0.7148438,3.0703125 -0.4453125,1.04296876 -1.1484375,1.40625001 -1.734375,1.40625001 -0.8554687,0 -1.1953125,-0.67968751 -1.1953125,-0.83203121 l 0.035156,-0.1992188 z M 160.11011,1.8524953 c -0.0586,0.1992188 -0.0703,0.2109375 -0.0937,0.2226563 -0.082,0.035156 -0.24609,0.035156 -0.375,0.035156 -0.23437,0 -0.49218,0 -0.49218,0.3984375 0,0.1640625 0.10546,0.2695313 0.26953,0.2695313 0.41015,0 0.89062,-0.035156 1.32422,-0.035156 0.49218,0 1.04296,0.035156 1.52343,0.035156 0.10547,0 0.375,0 0.375,-0.4101563 0,-0.2460937 -0.22265,-0.2578125 -0.375,-0.2578125 -0.19922,0 -0.42187,0 -0.60937,-0.011719 l 0.60937,-2.49609379 c 0.22266,0.19921875 0.69141,0.515625 1.45313,0.515625 2.49609,0 4.04297,-2.27343751 4.04297,-4.23046871 0,-1.7695313 -1.3125,-2.3671875 -2.50782,-2.3671875 -1.01953,0 -1.75781,0.5507812 -1.99218,0.7734375 -0.55078,-0.7734375 -1.48828,-0.7734375 -1.65235,-0.7734375 -0.52734,0 -0.94922,0.2929687 -1.24218,0.8203125 -0.36329,0.5625 -0.55079,1.3476562 -0.55079,1.4179687 0,0.1992188 0.22266,0.1992188 0.35157,0.1992188 0.15234,0 0.21093,0 0.28125,-0.070312 0.0234,-0.035156 0.0234,-0.058594 0.11718,-0.421875 0.28125,-1.1484375 0.60938,-1.4296875 0.97266,-1.4296875 0.16406,0 0.32813,0.058594 0.32813,0.5273437 0,0.2109375 -0.0234,0.421875 -0.082,0.6210938 z m 3.29297,-6.890625 c 0.42188,-0.4804687 1.08985,-0.9257812 1.78125,-0.9257812 0.89063,0 0.96094,0.7734375 0.96094,1.0898437 0,0.7382813 -0.49219,2.5078125 -0.71484,3.0703125 -0.44532,1.04296876 -1.14844,1.40625001 -1.73438,1.40625001 -0.85547,0 -1.19531,-0.67968751 -1.19531,-0.83203121 l 0.0351,-0.1992188 z m 0,0"
         style="fill:#231f20;fill-opacity:1;fill-rule:nonzero;stroke:none" />
      <path
         id="path16"
         d="m 171.17554,-9.5908641 c 0.10547,-0.1875 0.11719,-0.375 0.11719,-0.4218749 0,-0.410156 -0.38672,-0.75 -0.79688,-0.75 -0.26953,0 -0.5625,0.117187 -0.71484,0.574219 l -1.39453,4.1718747 c -0.0117,0.035156 -0.0469,0.1523437 -0.0469,0.1875 0,0.09375 0.0586,0.1171875 0.2461,0.1992187 0.25781,0.1171875 0.28125,0.1171875 0.3164,0.1171875 0.082,0 0.10547,-0.046875 0.17579,-0.1757812 z m 0,0"
         style="fill:#231f20;fill-opacity:1;fill-rule:nonzero;stroke:none" />
      <path
         id="path17"
         d="m 39.597417,-77.68852 c -0.410156,0.421875 -0.714844,0.703125 -1.171875,0.703125 -0.222656,0 -0.421875,-0.03516 -0.867187,-0.339844 -0.28125,-0.175781 -0.574219,-0.363281 -0.902344,-0.363281 -0.527344,0 -0.84375,0.363281 -1.523438,1.113281 l 0.210938,0.199219 c 0.410156,-0.421875 0.714844,-0.703125 1.171875,-0.703125 0.210937,0 0.410156,0.03516 0.855469,0.339843 0.292968,0.175782 0.574218,0.363282 0.902343,0.363282 0.539063,0 0.855469,-0.363282 1.523438,-1.113282 z m 0,0"
         style="fill:#231f20;fill-opacity:1;fill-rule:nonzero;stroke:none" />
      <path
         id="path18"
         d="m 40.801519,-72.763716 c 0.480468,-0.773437 0.925781,-1.125 1.664062,-1.171875 0.140625,-0.02344 0.257813,-0.02344 0.257813,-0.28125 0,-0.05859 -0.03516,-0.140625 -0.164063,-0.140625 -0.257812,0 -0.867187,0.02344 -1.125,0.02344 -0.421875,0 -0.855469,-0.02344 -1.253906,-0.02344 -0.117188,0 -0.257813,0 -0.257813,0.269532 0,0.128906 0.128907,0.152343 0.1875,0.152343 0.527344,0.03516 0.585938,0.292969 0.585938,0.46875 0,0.210938 -0.199219,0.539063 -0.210938,0.5625 l -4.511718,7.136719 -0.996094,-7.734375 c 0,-0.410156 0.738281,-0.433594 0.902344,-0.433594 0.210937,0 0.339843,0 0.339843,-0.28125 0,-0.140625 -0.152343,-0.140625 -0.199218,-0.140625 -0.246094,0 -0.527344,0.02344 -0.773438,0.02344 h -0.808594 c -1.042968,0 -1.476562,-0.02344 -1.488281,-0.02344 -0.08203,0 -0.257812,0 -0.257812,0.257813 0,0.164062 0.105468,0.164062 0.328125,0.164062 0.738281,0 0.773437,0.128907 0.820312,0.480469 l 1.148438,8.847656 c 0.04687,0.304688 0.04687,0.351563 0.246093,0.351563 0.164063,0 0.246094,-0.04687 0.386719,-0.28125 z m 0,0"
         style="fill:#231f20;fill-opacity:1;fill-rule:nonzero;stroke:none" />
      <path
         id="path19"
         d="m 47.864995,-61.080122 c 0,-0.03516 0,-0.07031 -0.246093,-0.304687 -1.429688,-1.453125 -2.238282,-3.820313 -2.238282,-6.75 0,-2.777344 0.679688,-5.179688 2.34375,-6.867188 0.140625,-0.128906 0.140625,-0.164062 0.140625,-0.199219 0,-0.09375 -0.07031,-0.117187 -0.128906,-0.117187 -0.1875,0 -1.359375,1.03125 -2.0625,2.4375 -0.738281,1.453125 -1.066406,2.988281 -1.066406,4.746094 0,1.277343 0.199219,2.988281 0.949219,4.523437 0.84375,1.722656 2.015625,2.648438 2.179687,2.648438 0.05859,0 0.128906,-0.02344 0.128906,-0.117188 z m 0,0"
         style="fill:#231f20;fill-opacity:1;fill-rule:nonzero;stroke:none" />
      <path
         id="path20"
         d="m 56.513433,-70.783247 c 0,-0.07031 -0.05859,-0.257812 -0.257813,-0.257812 -0.02344,0 -0.867187,0.199218 -1.3125,0.609375 -0.199218,-0.222657 -0.691406,-0.609375 -1.535156,-0.609375 -2.496094,0 -4.042969,2.261718 -4.042969,4.230468 0,1.757813 1.324219,2.367188 2.507813,2.367188 0.691406,0 1.265625,-0.269531 1.570312,-0.457031 l -0.550781,2.179687 c -0.05859,0.210938 -0.07031,0.222656 -0.175781,0.234375 -0.152344,0.03516 -0.386719,0.03516 -0.539063,0.03516 -0.246093,0 -0.328125,0 -0.398437,0.08203 -0.07031,0.09375 -0.117188,0.316406 -0.117188,0.328125 0,0.09375 0.05859,0.257812 0.28125,0.257812 0.492188,0 1.019532,-0.03516 1.523438,-0.03516 0.527344,0 1.078125,0.03516 1.59375,0.03516 0.105469,0 0.375,0 0.375,-0.410156 0,-0.246094 -0.246094,-0.257813 -0.375,-0.257813 -0.199219,0 -0.433594,0 -0.621094,-0.01172 z m -2.777344,4.6875 c -0.07031,0.246094 -0.07031,0.269531 -0.222656,0.421875 -0.457031,0.457031 -1.066406,0.714844 -1.570313,0.714844 -0.878906,0 -0.960937,-0.773438 -0.960937,-1.089844 0,-0.75 0.492187,-2.507812 0.726562,-3.070312 0.445313,-1.054688 1.148438,-1.40625 1.734375,-1.40625 0.84375,0 1.183594,0.667968 1.183594,0.832031 0,0.05859 -0.01172,0.152344 -0.02344,0.199219 z m 0,0"
         style="fill:#231f20;fill-opacity:1;fill-rule:nonzero;stroke:none" />
      <path
         id="path21"
         d="m 61.04273,-68.134809 c 0,-1.089844 -0.140625,-2.871094 -0.949219,-4.535157 -0.84375,-1.710937 -2.015625,-2.648437 -2.179688,-2.648437 -0.05859,0 -0.128906,0.02344 -0.128906,0.117187 0,0.03516 0,0.07031 0.246094,0.316407 1.441406,1.441406 2.238281,3.808593 2.238281,6.738281 0,2.777344 -0.667969,5.179687 -2.332031,6.867187 -0.152344,0.128907 -0.152344,0.164063 -0.152344,0.199219 0,0.09375 0.07031,0.117188 0.128906,0.117188 0.1875,0 1.371094,-1.03125 2.074219,-2.4375 0.726563,-1.464844 1.054688,-3.011719 1.054688,-4.734375 z m 0,0"
         style="fill:#231f20;fill-opacity:1;fill-rule:nonzero;stroke:none" />
    </g>
    <rect
       id="rect21"
       x="0"
       y="0"
       width="1"
       height="1"
       style="fill:#ffffff;fill-opacity:1;fill-rule:nonzero"
       transform="matrix(320.8,0,0,-0.64,1.7973333,1.8293333)" />
    <rect
       id="rect22"
       x="0"
       y="0"
       width="1"
       height="1"
       style="fill:#ffffff;fill-opacity:1;fill-rule:nonzero"
       transform="matrix(0.64,0,0,-223.84,1.7973333,225.34933)" />
    <rect
       id="rect23"
       x="0"
       y="0"
       width="1"
       height="1"
       style="fill:#ffffff;fill-opacity:1;fill-rule:nonzero"
       transform="matrix(0.64,0,0,-223.84,321.95733,225.34933)" />
    <rect
       id="rect24"
       x="0"
       y="0"
       width="1"
       height="1"
       style="fill:#ffffff;fill-opacity:1;fill-rule:nonzero"
       transform="matrix(320.8,0,0,-0.64,1.7973333,225.66932)" />
  </g>
</svg>
