<?xml version="1.0" encoding="UTF-8" standalone="no"?>
<!-- Created with Inkscape (http://www.inkscape.org/) -->

<svg
   version="1.1"
   id="svg1"
   width="278.66666"
   height="248"
   viewBox="0 0 278.66666 248"
   xmlns="http://www.w3.org/2000/svg"
   xmlns:svg="http://www.w3.org/2000/svg">
  <defs
     id="defs1" />
  <g
     id="g1">
    <rect
       id="rect1"
       x="0"
       y="0"
       width="1"
       height="1"
       style="fill:#ffffff;fill-opacity:1;fill-rule:nonzero"
       transform="matrix(274.56,0,0,-244.48,2.1706533,246.30933)" />
    <path
       id="path1"
       d="m 340.398,523.602 -240,-480.0004"
       style="fill:none;stroke:#231f20;stroke-width:10;stroke-linecap:butt;stroke-linejoin:miter;stroke-miterlimit:10;stroke-dasharray:none;stroke-opacity:1"
       transform="matrix(0.13333333,0,0,-0.13333333,0,248)" />
    <path
       id="path2"
       d="m 351.578,545.961 -40.246,-35.777 h 22.359 l 13.418,-17.887 z"
       style="fill:#231f20;fill-opacity:1;fill-rule:nonzero;stroke:#231f20;stroke-width:10;stroke-linecap:butt;stroke-linejoin:miter;stroke-miterlimit:10;stroke-dasharray:none;stroke-opacity:1;paint-order:stroke fill markers"
       transform="matrix(0.13333333,0,0,-0.13333333,0,248)" />
    <path
       id="path3"
       d="m 580.398,1003.6 -240,-479.998"
       style="fill:none;stroke:#231f20;stroke-width:10;stroke-linecap:butt;stroke-linejoin:miter;stroke-miterlimit:10;stroke-dasharray:none;stroke-opacity:1"
       transform="matrix(0.13333333,0,0,-0.13333333,0,248)" />
    <path
       id="path4"
       d="m 340.398,1403.6 240,-400"
       style="fill:none;stroke:#231f20;stroke-width:10;stroke-linecap:butt;stroke-linejoin:miter;stroke-miterlimit:10;stroke-dasharray:none;stroke-opacity:1"
       transform="matrix(0.13333333,0,0,-0.13333333,0,248)" />
    <path
       id="path5"
       d="m 327.539,1425.04 8.574,-53.17 12.004,18.87 22.293,1.71 z"
       style="fill:#231f20;fill-opacity:1;fill-rule:nonzero;stroke:#231f20;stroke-width:10;stroke-linecap:butt;stroke-linejoin:miter;stroke-miterlimit:10;stroke-dasharray:none;stroke-opacity:1;paint-order:stroke fill markers"
       transform="matrix(0.13333333,0,0,-0.13333333,0,248)" />
    <path
       id="path6"
       d="m 100.398,1803.6 240,-400"
       style="fill:none;stroke:#231f20;stroke-width:10;stroke-linecap:butt;stroke-linejoin:miter;stroke-miterlimit:10;stroke-dasharray:none;stroke-opacity:1"
       transform="matrix(0.13333333,0,0,-0.13333333,0,248)" />
    <path
       id="path7"
       d="M 1060.4,1003.6 H 580.398"
       style="fill:none;stroke:#231f20;stroke-width:10;stroke-linecap:butt;stroke-linejoin:miter;stroke-miterlimit:10;stroke-dasharray:96, 96;stroke-dashoffset:0;stroke-opacity:1"
       transform="matrix(0.13333333,0,0,-0.13333333,0,248)" />
    <path
       id="path8"
       d="m 1085.4,1003.6 -50,20 10,-20 -10,-19.998 z"
       style="fill:#231f20;fill-opacity:1;fill-rule:nonzero;stroke:#231f20;stroke-width:10;stroke-linecap:butt;stroke-linejoin:miter;stroke-miterlimit:10;stroke-dasharray:none;stroke-opacity:1;paint-order:stroke fill markers"
       transform="matrix(0.13333333,0,0,-0.13333333,0,248)" />
    <path
       id="path9"
       d="m 1540.4,1003.6 h -480"
       style="fill:none;stroke:#231f20;stroke-width:10;stroke-linecap:butt;stroke-linejoin:miter;stroke-miterlimit:10;stroke-dasharray:96, 96;stroke-dashoffset:0;stroke-opacity:1"
       transform="matrix(0.13333333,0,0,-0.13333333,0,248)" />
    <path
       id="path10"
       d="m 1780.4,1403.6 -240,-400"
       style="fill:none;stroke:#231f20;stroke-width:10;stroke-linecap:butt;stroke-linejoin:miter;stroke-miterlimit:10;stroke-dasharray:none;stroke-opacity:1"
       transform="matrix(0.13333333,0,0,-0.13333333,0,248)" />
    <path
       id="path11"
       d="m 1793.26,1425.04 -42.87,-32.59 22.29,-1.71 12.01,-18.87 z"
       style="fill:#231f20;fill-opacity:1;fill-rule:nonzero;stroke:#231f20;stroke-width:10;stroke-linecap:butt;stroke-linejoin:miter;stroke-miterlimit:10;stroke-dasharray:none;stroke-opacity:1;paint-order:stroke fill markers"
       transform="matrix(0.13333333,0,0,-0.13333333,0,248)" />
    <path
       id="path12"
       d="m 2020.4,1803.6 -240,-400"
       style="fill:none;stroke:#231f20;stroke-width:10;stroke-linecap:butt;stroke-linejoin:miter;stroke-miterlimit:10;stroke-dasharray:none;stroke-opacity:1"
       transform="matrix(0.13333333,0,0,-0.13333333,0,248)" />
    <path
       id="path13"
       d="m 1780.4,523.602 240,-480.0004"
       style="fill:none;stroke:#231f20;stroke-width:10;stroke-linecap:butt;stroke-linejoin:miter;stroke-miterlimit:10;stroke-dasharray:none;stroke-opacity:1"
       transform="matrix(0.13333333,0,0,-0.13333333,0,248)" />
    <path
       id="path14"
       d="m 1769.22,545.961 4.47,-53.664 13.42,17.887 h 22.36 z"
       style="fill:#231f20;fill-opacity:1;fill-rule:nonzero;stroke:#231f20;stroke-width:10;stroke-linecap:butt;stroke-linejoin:miter;stroke-miterlimit:10;stroke-dasharray:none;stroke-opacity:1;paint-order:stroke fill markers"
       transform="matrix(0.13333333,0,0,-0.13333333,0,248)" />
    <path
       id="path15"
       d="m 1540.4,1003.6 240,-479.998"
       style="fill:none;stroke:#231f20;stroke-width:10;stroke-linecap:butt;stroke-linejoin:miter;stroke-miterlimit:10;stroke-dasharray:none;stroke-opacity:1"
       transform="matrix(0.13333333,0,0,-0.13333333,0,248)" />
    <g
       id="g15"
       aria-label="p&#10;1&#10;p&#10;2&#10;p&#10;′&#10;1&#10;p&#10;′&#10;2&#10;q"
       transform="matrix(1.3333333,0,0,1.3333333,54.5068,194.77347)">
      <path
         id="path16"
         d="m 0.62185313,1.8163844 c -0.10546875,0.4335937 -0.1640625,0.5507812 -0.75,0.5507812 -0.17578125,0 -0.31640625,0 -0.31640625,0.2695313 0,0.035156 0.0117188,0.140625 0.17578125,0.140625 0.1875,0 0.38671875,-0.023437 0.57421875,-0.023437 h 0.609375 c 0.30468752,0 1.03125002,0.023437 1.33593752,0.023437 0.09375,0 0.2578125,0 0.2578125,-0.2578125 0,-0.1523438 -0.09375,-0.1523438 -0.3398438,-0.1523438 -0.65625,0 -0.703125,-0.1054687 -0.703125,-0.2109375 0,-0.1757812 0.6445313,-2.64843748 0.7265625,-2.97656248 0.1640625,0.41015625 0.5507813,0.9609375 1.2890625,0.9609375 1.6289063,0 3.375,-2.10937502 3.375,-4.21875002 0,-1.3125 -0.75,-2.25 -1.8164062,-2.25 -0.9257813,0 -1.6992188,0.890625 -1.8515625,1.0898438 -0.1171875,-0.7148438 -0.6796875,-1.0898438 -1.2539063,-1.0898438 -0.4101562,0 -0.7382812,0.1992188 -1.01953122,0.75 -0.2578125,0.515625 -0.45703125,1.3945313 -0.45703125,1.4414063 0,0.058594 0.0585938,0.140625 0.1640625,0.140625 0.10546875,0 0.12890625,-0.023438 0.2109375,-0.3515625 0.21093747,-0.84375 0.49218747,-1.6875 1.06640627,-1.6875 0.328125,0 0.4453125,0.2226562 0.4453125,0.65625 0,0.3398437 -0.046875,0.4921875 -0.1054688,0.75 z M 3.0945094,-4.4765844 c 0.1054687,-0.3984375 0.5039062,-0.8203125 0.7382812,-1.0195312 0.1523438,-0.140625 0.6328125,-0.5390625 1.171875,-0.5390625 0.6328125,0 0.9257813,0.6328125 0.9257813,1.3710937 0,0.6914063 -0.4101563,2.3085938 -0.7617188,3.0585938 -0.3632812,0.77343747 -1.0195312,1.46484372 -1.6875,1.46484372 -0.9726562,0 -1.125,-1.24218752 -1.125,-1.28906252 0,-0.046875 0.023437,-0.1640625 0.035156,-0.234375 z m 0,0"
         style="fill:#231f20;fill-opacity:1;fill-rule:nonzero;stroke:none" />
      <path
         id="path17"
         d="m 10.008572,-4.2158422 c 0,-0.234375 0,-0.2578125 -0.2343751,-0.2578125 -0.609375,0.6328125 -1.4882813,0.6328125 -1.8046875,0.6328125 v 0.3164063 c 0.1992187,0 0.7851562,0 1.3007812,-0.2578125 v 5.15625 c 0,0.3515625 -0.035156,0.4804687 -0.9257812,0.4804687 H 8.0281031 v 0.3046875 c 0.3515625,-0.035156 1.2070313,-0.035156 1.6054688,-0.035156 0.3984371,0 1.2656251,0 1.6171871,0.035156 V 1.8544703 h -0.316406 c -0.902344,0 -0.925781,-0.1171875 -0.925781,-0.4804687 z m 0,0"
         style="fill:#231f20;fill-opacity:1;fill-rule:nonzero;stroke:none" />
      <path
         id="path18"
         d="m 112.22244,1.8163844 c -0.10547,0.4335937 -0.16406,0.5507812 -0.75,0.5507812 -0.17578,0 -0.31641,0 -0.31641,0.2695313 0,0.035156 0.0117,0.140625 0.17578,0.140625 0.1875,0 0.38672,-0.023437 0.57422,-0.023437 h 0.60938 c 0.30469,0 1.03125,0.023437 1.33594,0.023437 0.0937,0 0.25781,0 0.25781,-0.2578125 0,-0.1523438 -0.0937,-0.1523438 -0.33985,-0.1523438 -0.65625,0 -0.70312,-0.1054687 -0.70312,-0.2109375 0,-0.1757812 0.64453,-2.64843748 0.72656,-2.97656248 0.16406,0.41015625 0.55078,0.9609375 1.28906,0.9609375 1.62891,0 3.375,-2.10937502 3.375,-4.21875002 0,-1.3125 -0.75,-2.25 -1.8164,-2.25 -0.92578,0 -1.69922,0.890625 -1.85156,1.0898438 -0.11719,-0.7148438 -0.67969,-1.0898438 -1.25391,-1.0898438 -0.41016,0 -0.73828,0.1992188 -1.01953,0.75 -0.25781,0.515625 -0.45703,1.3945313 -0.45703,1.4414063 0,0.058594 0.0586,0.140625 0.16406,0.140625 0.10547,0 0.12891,-0.023438 0.21094,-0.3515625 0.21093,-0.84375 0.49218,-1.6875 1.0664,-1.6875 0.32813,0 0.44532,0.2226562 0.44532,0.65625 0,0.3398437 -0.0469,0.4921875 -0.10547,0.75 z m 2.47266,-6.2929688 c 0.10546,-0.3984375 0.5039,-0.8203125 0.73828,-1.0195312 0.15234,-0.140625 0.63281,-0.5390625 1.17187,-0.5390625 0.63281,0 0.92578,0.6328125 0.92578,1.3710937 0,0.6914063 -0.41015,2.3085938 -0.76172,3.0585938 -0.36328,0.77343747 -1.01953,1.46484372 -1.6875,1.46484372 -0.97265,0 -1.125,-1.24218752 -1.125,-1.28906252 0,-0.046875 0.0234,-0.1640625 0.0352,-0.234375 z m 0,0"
         style="fill:#231f20;fill-opacity:1;fill-rule:nonzero;stroke:none" />
      <path
         id="path19"
         d="m 119.9451,1.3974391 1.05468,-1.03125004 c 1.5586,-1.37109376 2.15625,-1.91015626 2.15625,-2.90624996 0,-1.1367188 -0.90234,-1.9335938 -2.12109,-1.9335938 -1.125,0 -1.85156,0.9140625 -1.85156,1.8046875 0,0.5507813 0.49218,0.5507813 0.52734,0.5507813 0.16406,0 0.51563,-0.1171875 0.51563,-0.5273438 0,-0.2578125 -0.1875,-0.515625 -0.52735,-0.515625 -0.082,0 -0.10547,0 -0.1289,0.011719 0.22265,-0.6445313 0.76171,-1.0195313 1.33593,-1.0195313 0.91407,0 1.33594,0.8085938 1.33594,1.6289063 0,0.796875 -0.49219,1.58203121 -1.04297,2.20312496 l -1.91015,2.13281254 c -0.10547,0.1054687 -0.10547,0.1289062 -0.10547,0.3632812 h 3.6914 l 0.28125,-1.73437499 h -0.25781 c -0.0469,0.3046875 -0.11719,0.73828129 -0.21094,0.89062499 -0.0703,0.082031 -0.72656,0.082031 -0.94922,0.082031 z m 0,0"
         style="fill:#231f20;fill-opacity:1;fill-rule:nonzero;stroke:none" />
      <path
         id="path20"
         d="m 0.62185313,-110.5049 c -0.10546875,0.43359 -0.1640625,0.55078 -0.75,0.55078 -0.17578125,0 -0.31640625,0 -0.31640625,0.26953 0,0.0352 0.0117188,0.14062 0.17578125,0.14062 0.1875,0 0.38671875,-0.0234 0.57421875,-0.0234 h 0.609375 c 0.30468752,0 1.03125002,0.0234 1.33593752,0.0234 0.09375,0 0.2578125,0 0.2578125,-0.25781 0,-0.15234 -0.09375,-0.15234 -0.3398438,-0.15234 -0.65625,0 -0.703125,-0.10547 -0.703125,-0.21094 0,-0.17578 0.6445313,-2.64844 0.7265625,-2.97656 0.1640625,0.41015 0.5507813,0.96093 1.2890625,0.96093 1.6289063,0 3.375,-2.10937 3.375,-4.21875 0,-1.3125 -0.75,-2.25 -1.8164062,-2.25 -0.9257813,0 -1.6992188,0.89063 -1.8515625,1.08985 -0.1171875,-0.71485 -0.6796875,-1.08985 -1.2539063,-1.08985 -0.4101562,0 -0.7382812,0.19922 -1.01953122,0.75 -0.2578125,0.51563 -0.45703125,1.39454 -0.45703125,1.44141 0,0.0586 0.0585938,0.14063 0.1640625,0.14063 0.10546875,0 0.12890625,-0.0234 0.2109375,-0.35157 0.21093747,-0.84375 0.49218747,-1.6875 1.06640627,-1.6875 0.328125,0 0.4453125,0.22266 0.4453125,0.65625 0,0.33985 -0.046875,0.49219 -0.1054688,0.75 z m 2.47265627,-6.29297 c 0.1054687,-0.39844 0.5039062,-0.82032 0.7382812,-1.01953 0.1523438,-0.14063 0.6328125,-0.53907 1.171875,-0.53907 0.6328125,0 0.9257813,0.63282 0.9257813,1.3711 0,0.6914 -0.4101563,2.30859 -0.7617188,3.05859 -0.3632812,0.77344 -1.0195312,1.46484 -1.6875,1.46484 -0.9726562,0 -1.125,-1.24218 -1.125,-1.28906 0,-0.0469 0.023437,-0.16406 0.035156,-0.23437 z m 0,0"
         style="fill:#231f20;fill-opacity:1;fill-rule:nonzero;stroke:none" />
      <path
         id="path21"
         d="m 9.5984156,-122.33498 c 0.046875,-0.11719 0.09375,-0.21094 0.09375,-0.30469 0,-0.29297 -0.2578125,-0.52734 -0.5742187,-0.52734 -0.28125,0 -0.4570313,0.1875 -0.5273438,0.44531 l -1.1835937,4.35937 c 0,0.0117 -0.035156,0.12891 -0.035156,0.12891 0,0.11719 0.2578125,0.1875 0.3398438,0.1875 0.058594,0 0.070312,-0.0352 0.1289062,-0.16406 z m 0,0"
         style="fill:#231f20;fill-opacity:1;fill-rule:nonzero;stroke:none" />
      <path
         id="path22"
         d="m 10.008572,-115.21584 c 0,-0.23438 0,-0.25781 -0.2343751,-0.25781 -0.609375,0.63281 -1.4882813,0.63281 -1.8046875,0.63281 v 0.3164 c 0.1992187,0 0.7851562,0 1.3007812,-0.25781 v 5.15625 c 0,0.35156 -0.035156,0.48047 -0.9257812,0.48047 H 8.0281031 v 0.30469 c 0.3515625,-0.0352 1.2070313,-0.0352 1.6054688,-0.0352 0.3984371,0 1.2656251,0 1.6171871,0.0352 v -0.30469 h -0.316406 c -0.902344,0 -0.925781,-0.11719 -0.925781,-0.48047 z m 0,0"
         style="fill:#231f20;fill-opacity:1;fill-rule:nonzero;stroke:none" />
      <path
         id="path23"
         d="m 112.22244,-110.5049 c -0.10547,0.43359 -0.16406,0.55078 -0.75,0.55078 -0.17578,0 -0.31641,0 -0.31641,0.26953 0,0.0352 0.0117,0.14062 0.17578,0.14062 0.1875,0 0.38672,-0.0234 0.57422,-0.0234 h 0.60938 c 0.30469,0 1.03125,0.0234 1.33594,0.0234 0.0937,0 0.25781,0 0.25781,-0.25781 0,-0.15234 -0.0937,-0.15234 -0.33985,-0.15234 -0.65625,0 -0.70312,-0.10547 -0.70312,-0.21094 0,-0.17578 0.64453,-2.64844 0.72656,-2.97656 0.16406,0.41015 0.55078,0.96093 1.28906,0.96093 1.62891,0 3.375,-2.10937 3.375,-4.21875 0,-1.3125 -0.75,-2.25 -1.8164,-2.25 -0.92578,0 -1.69922,0.89063 -1.85156,1.08985 -0.11719,-0.71485 -0.67969,-1.08985 -1.25391,-1.08985 -0.41016,0 -0.73828,0.19922 -1.01953,0.75 -0.25781,0.51563 -0.45703,1.39454 -0.45703,1.44141 0,0.0586 0.0586,0.14063 0.16406,0.14063 0.10547,0 0.12891,-0.0234 0.21094,-0.35157 0.21093,-0.84375 0.49218,-1.6875 1.0664,-1.6875 0.32813,0 0.44532,0.22266 0.44532,0.65625 0,0.33985 -0.0469,0.49219 -0.10547,0.75 z m 2.47266,-6.29297 c 0.10546,-0.39844 0.5039,-0.82032 0.73828,-1.01953 0.15234,-0.14063 0.63281,-0.53907 1.17187,-0.53907 0.63281,0 0.92578,0.63282 0.92578,1.3711 0,0.6914 -0.41015,2.30859 -0.76172,3.05859 -0.36328,0.77344 -1.01953,1.46484 -1.6875,1.46484 -0.97265,0 -1.125,-1.24218 -1.125,-1.28906 0,-0.0469 0.0234,-0.16406 0.0352,-0.23437 z m 0,0"
         style="fill:#231f20;fill-opacity:1;fill-rule:nonzero;stroke:none" />
      <path
         id="path24"
         d="m 121.199,-122.33498 c 0.0469,-0.11719 0.0937,-0.21094 0.0937,-0.30469 0,-0.29297 -0.25781,-0.52734 -0.57422,-0.52734 -0.28125,0 -0.45703,0.1875 -0.52734,0.44531 l -1.18359,4.35937 c 0,0.0117 -0.0352,0.12891 -0.0352,0.12891 0,0.11719 0.25781,0.1875 0.33984,0.1875 0.0586,0 0.0703,-0.0352 0.12891,-0.16406 z m 0,0"
         style="fill:#231f20;fill-opacity:1;fill-rule:nonzero;stroke:none" />
      <path
         id="path25"
         d="m 119.9451,-109.60256 1.05468,-1.03125 c 1.5586,-1.37109 2.15625,-1.91016 2.15625,-2.90625 0,-1.13672 -0.90234,-1.93359 -2.12109,-1.93359 -1.125,0 -1.85156,0.91406 -1.85156,1.80468 0,0.55078 0.49218,0.55078 0.52734,0.55078 0.16406,0 0.51563,-0.11718 0.51563,-0.52734 0,-0.25781 -0.1875,-0.51562 -0.52735,-0.51562 -0.082,0 -0.10547,0 -0.1289,0.0117 0.22265,-0.64453 0.76171,-1.01953 1.33593,-1.01953 0.91407,0 1.33594,0.8086 1.33594,1.62891 0,0.79687 -0.49219,1.58203 -1.04297,2.20312 l -1.91015,2.13282 c -0.10547,0.10547 -0.10547,0.1289 -0.10547,0.36328 h 3.6914 l 0.28125,-1.73438 h -0.25781 c -0.0469,0.30469 -0.11719,0.73828 -0.21094,0.89063 -0.0703,0.082 -0.72656,0.082 -0.94922,0.082 z m 0,0"
         style="fill:#231f20;fill-opacity:1;fill-rule:nonzero;stroke:none" />
      <path
         id="path26"
         d="m 70.049587,-85.869163 c 0,-0.07031 -0.05859,-0.128906 -0.128906,-0.128906 -0.117187,0 -0.679687,0.527344 -0.949219,1.019531 -0.257812,-0.644531 -0.703125,-1.03125 -1.324218,-1.03125 -1.617188,0 -3.363282,2.097657 -3.363282,4.21875 0,1.417969 0.832032,2.25 1.804688,2.25 0.761719,0 1.394531,-0.574218 1.6875,-0.902343 l 0.02344,0.01172 -0.550781,2.15625 -0.128906,0.515625 c -0.128906,0.433594 -0.339844,0.433594 -1.019531,0.445313 -0.152344,0 -0.304688,0 -0.304688,0.269531 0,0.105469 0.09375,0.140625 0.1875,0.140625 0.210938,0 0.46875,-0.02344 0.667969,-0.02344 h 1.464844 c 0.210937,0 0.457031,0.02344 0.667968,0.02344 0.08203,0 0.257813,0 0.257813,-0.269531 0,-0.140625 -0.117188,-0.140625 -0.328125,-0.140625 -0.679688,0 -0.714844,-0.105469 -0.714844,-0.210938 0,-0.08203 0.01172,-0.09375 0.05859,-0.28125 z m -2.027343,4.476563 c -0.07031,0.246094 -0.07031,0.28125 -0.269532,0.550781 -0.316406,0.398438 -0.949218,1.019531 -1.617187,1.019531 -0.597656,0 -0.925781,-0.539062 -0.925781,-1.382812 0,-0.785156 0.445312,-2.390625 0.714843,-3 0.492188,-0.996094 1.171875,-1.511719 1.722657,-1.511719 0.949218,0 1.136718,1.171875 1.136718,1.289063 0,0.01172 -0.04687,0.199218 -0.05859,0.222656 z m 0,0"
         style="fill:#231f20;fill-opacity:1;fill-rule:nonzero;stroke:none" />
    </g>
    <rect
       id="rect26"
       x="0"
       y="0"
       width="1"
       height="1"
       style="fill:#ffffff;fill-opacity:1;fill-rule:nonzero"
       transform="matrix(275.68,0,0,-0.64,1.6906533,1.8293333)" />
    <rect
       id="rect27"
       x="0"
       y="0"
       width="1"
       height="1"
       style="fill:#ffffff;fill-opacity:1;fill-rule:nonzero"
       transform="matrix(0.64,0,0,-244.96,1.6906533,246.62933)" />
    <rect
       id="rect28"
       x="0"
       y="0"
       width="1"
       height="1"
       style="fill:#ffffff;fill-opacity:1;fill-rule:nonzero"
       transform="matrix(0.64,0,0,-244.96,276.73067,246.62933)" />
    <rect
       id="rect29"
       x="0"
       y="0"
       width="1"
       height="1"
       style="fill:#ffffff;fill-opacity:1;fill-rule:nonzero"
       transform="matrix(275.68,0,0,-0.64,1.6906533,246.94932)" />
  </g>
</svg>
