<?xml version="1.0" encoding="UTF-8" standalone="no"?>
<!-- Created with Inkscape (http://www.inkscape.org/) -->

<svg
   version="1.1"
   id="svg1"
   width="320.79999"
   height="224.48"
   viewBox="0 0 320.79999 224.47999"
   xmlns="http://www.w3.org/2000/svg"
   xmlns:svg="http://www.w3.org/2000/svg">
  <defs
     id="defs1" />
  <g
     id="g1"
     transform="translate(-1.7973332,-1.1893333)">
    <rect
       id="rect1"
       x="0"
       y="0"
       width="1"
       height="1"
       style="fill:#ffffff;fill-opacity:1;fill-rule:nonzero"
       transform="matrix(319.84,0,0,-223.2,2.2773333,225.02933)" />
    <path
       id="path1"
       d="M 256.398,446 96.3984,46"
       style="fill:none;stroke:#231f20;stroke-width:10;stroke-linecap:butt;stroke-linejoin:miter;stroke-miterlimit:10;stroke-dasharray:none;stroke-opacity:1"
       transform="matrix(0.13333333,0,0,-0.13333333,0,226.66667)" />
    <path
       id="path2"
       d="m 265.684,469.211 -37.137,-38.996 22.281,1.859 14.856,-16.715 z"
       style="fill:#231f20;fill-opacity:1;fill-rule:nonzero;stroke:#231f20;stroke-width:10;stroke-linecap:butt;stroke-linejoin:miter;stroke-miterlimit:10;stroke-dasharray:none;stroke-opacity:1;paint-order:stroke fill markers"
       transform="matrix(0.13333333,0,0,-0.13333333,0,226.66667)" />
    <path
       id="path3"
       d="m 416.398,846 -160,-400"
       style="fill:none;stroke:#231f20;stroke-width:10;stroke-linecap:butt;stroke-linejoin:miter;stroke-miterlimit:10;stroke-dasharray:none;stroke-opacity:1"
       transform="matrix(0.13333333,0,0,-0.13333333,0,226.66667)" />
    <path
       id="path4"
       d="m 256.398,1246 160,-400"
       style="fill:none;stroke:#231f20;stroke-width:10;stroke-linecap:butt;stroke-linejoin:miter;stroke-miterlimit:10;stroke-dasharray:none;stroke-opacity:1"
       transform="matrix(0.13333333,0,0,-0.13333333,0,226.66667)" />
    <path
       id="path5"
       d="m 247.113,1269.21 v -53.85 l 14.86,16.71 22.281,-1.86 z"
       style="fill:#231f20;fill-opacity:1;fill-rule:nonzero;stroke:#231f20;stroke-width:10;stroke-linecap:butt;stroke-linejoin:miter;stroke-miterlimit:10;stroke-dasharray:none;stroke-opacity:1;paint-order:stroke fill markers"
       transform="matrix(0.13333333,0,0,-0.13333333,0,226.66667)" />
    <path
       id="path6"
       d="M 96.3984,1646 256.398,1246"
       style="fill:none;stroke:#231f20;stroke-width:10;stroke-linecap:butt;stroke-linejoin:miter;stroke-miterlimit:10;stroke-dasharray:none;stroke-opacity:1"
       transform="matrix(0.13333333,0,0,-0.13333333,0,226.66667)" />
    <path
       id="path7"
       d="m 656.398,846 h -240"
       style="fill:none;stroke:#231f20;stroke-width:10;stroke-linecap:butt;stroke-linejoin:miter;stroke-miterlimit:10;stroke-dasharray:80, 80;stroke-dashoffset:0;stroke-opacity:1"
       transform="matrix(0.13333333,0,0,-0.13333333,0,226.66667)" />
    <path
       id="path8"
       d="m 681.398,846 -50,20 10,-20 -10,-20 z"
       style="fill:#231f20;fill-opacity:1;fill-rule:nonzero;stroke:#231f20;stroke-width:10;stroke-linecap:butt;stroke-linejoin:miter;stroke-miterlimit:10;stroke-dasharray:none;stroke-opacity:1;paint-order:stroke fill markers"
       transform="matrix(0.13333333,0,0,-0.13333333,0,226.66667)" />
    <path
       id="path9"
       d="m 896.398,846 h -240"
       style="fill:none;stroke:#231f20;stroke-width:10;stroke-linecap:butt;stroke-linejoin:miter;stroke-miterlimit:10;stroke-dasharray:80, 80;stroke-dashoffset:0;stroke-opacity:1"
       transform="matrix(0.13333333,0,0,-0.13333333,0,226.66667)" />
    <path
       id="path10"
       d="m 896.398,846 c 0,176.73 143.272,320 320.002,320 176.73,0 320,-143.27 320,-320"
       style="fill:none;stroke:#231f20;stroke-width:10;stroke-linecap:butt;stroke-linejoin:miter;stroke-miterlimit:10;stroke-dasharray:none;stroke-opacity:1"
       transform="matrix(0.13333333,0,0,-0.13333333,0,226.66667)" />
    <path
       id="path11"
       d="m 1241.4,1166 -50,-20 10,20 -10,20 z"
       style="fill:#231f20;fill-opacity:1;fill-rule:nonzero;stroke:#231f20;stroke-width:10;stroke-linecap:butt;stroke-linejoin:miter;stroke-miterlimit:10;stroke-dasharray:none;stroke-opacity:1;paint-order:stroke fill markers"
       transform="matrix(0.13333333,0,0,-0.13333333,0,226.66667)" />
    <path
       id="path12"
       d="m 1536.4,846 c 0,-176.73 -143.27,-320 -320,-320 -176.73,0 -320.002,143.27 -320.002,320"
       style="fill:none;stroke:#231f20;stroke-width:10;stroke-linecap:butt;stroke-linejoin:miter;stroke-miterlimit:10;stroke-dasharray:none;stroke-opacity:1"
       transform="matrix(0.13333333,0,0,-0.13333333,0,226.66667)" />
    <path
       id="path13"
       d="m 1191.4,526 50,20 -10,-20 10,-20 z"
       style="fill:#231f20;fill-opacity:1;fill-rule:nonzero;stroke:#231f20;stroke-width:10;stroke-linecap:butt;stroke-linejoin:miter;stroke-miterlimit:10;stroke-dasharray:none;stroke-opacity:1;paint-order:stroke fill markers"
       transform="matrix(0.13333333,0,0,-0.13333333,0,226.66667)" />
    <path
       id="path14"
       d="m 1776.4,846 h -240"
       style="fill:none;stroke:#231f20;stroke-width:10;stroke-linecap:butt;stroke-linejoin:miter;stroke-miterlimit:10;stroke-dasharray:80, 80;stroke-dashoffset:0;stroke-opacity:1"
       transform="matrix(0.13333333,0,0,-0.13333333,0,226.66667)" />
    <path
       id="path15"
       d="m 1801.4,846 -50,20 10,-20 -10,-20 z"
       style="fill:#231f20;fill-opacity:1;fill-rule:nonzero;stroke:#231f20;stroke-width:10;stroke-linecap:butt;stroke-linejoin:miter;stroke-miterlimit:10;stroke-dasharray:none;stroke-opacity:1;paint-order:stroke fill markers"
       transform="matrix(0.13333333,0,0,-0.13333333,0,226.66667)" />
    <path
       id="path16"
       d="m 2016.4,846 h -240"
       style="fill:none;stroke:#231f20;stroke-width:10;stroke-linecap:butt;stroke-linejoin:miter;stroke-miterlimit:10;stroke-dasharray:80, 80;stroke-dashoffset:0;stroke-opacity:1"
       transform="matrix(0.13333333,0,0,-0.13333333,0,226.66667)" />
    <path
       id="path17"
       d="m 2176.4,446 160,-400"
       style="fill:none;stroke:#231f20;stroke-width:10;stroke-linecap:butt;stroke-linejoin:miter;stroke-miterlimit:10;stroke-dasharray:none;stroke-opacity:1"
       transform="matrix(0.13333333,0,0,-0.13333333,0,226.66667)" />
    <path
       id="path18"
       d="m 2167.11,469.211 v -53.852 l 14.86,16.715 22.28,-1.859 z"
       style="fill:#231f20;fill-opacity:1;fill-rule:nonzero;stroke:#231f20;stroke-width:10;stroke-linecap:butt;stroke-linejoin:miter;stroke-miterlimit:10;stroke-dasharray:none;stroke-opacity:1;paint-order:stroke fill markers"
       transform="matrix(0.13333333,0,0,-0.13333333,0,226.66667)" />
    <path
       id="path19"
       d="m 2016.4,846 160,-400"
       style="fill:none;stroke:#231f20;stroke-width:10;stroke-linecap:butt;stroke-linejoin:miter;stroke-miterlimit:10;stroke-dasharray:none;stroke-opacity:1"
       transform="matrix(0.13333333,0,0,-0.13333333,0,226.66667)" />
    <path
       id="path20"
       d="m 2176.4,1246 -160,-400"
       style="fill:none;stroke:#231f20;stroke-width:10;stroke-linecap:butt;stroke-linejoin:miter;stroke-miterlimit:10;stroke-dasharray:none;stroke-opacity:1"
       transform="matrix(0.13333333,0,0,-0.13333333,0,226.66667)" />
    <path
       id="path21"
       d="m 2185.68,1269.21 -37.13,-39 22.28,1.86 14.85,-16.71 z"
       style="fill:#231f20;fill-opacity:1;fill-rule:nonzero;stroke:#231f20;stroke-width:10;stroke-linecap:butt;stroke-linejoin:miter;stroke-miterlimit:10;stroke-dasharray:none;stroke-opacity:1;paint-order:stroke fill markers"
       transform="matrix(0.13333333,0,0,-0.13333333,0,226.66667)" />
    <path
       id="path22"
       d="m 2336.4,1646 -160,-400"
       style="fill:none;stroke:#231f20;stroke-width:10;stroke-linecap:butt;stroke-linejoin:miter;stroke-miterlimit:10;stroke-dasharray:none;stroke-opacity:1"
       transform="matrix(0.13333333,0,0,-0.13333333,0,226.66667)" />
    <g
       id="g22"
       aria-label="p&#10;1&#10;p&#10;′&#10;1&#10;p&#10;2&#10;p&#10;′&#10;2&#10;qq&#10;k&#10;k−q"
       transform="matrix(1.3333333,0,0,1.3333333,33.333333,216.05312)">
      <path
         id="path23"
         d="m 0.62011719,1.8175819 c -0.10546875,0.4335937 -0.1640625,0.5507812 -0.75,0.5507812 -0.17578125,0 -0.31640625,0 -0.31640625,0.2695313 0,0.035156 0.0117188,0.140625 0.17578125,0.140625 0.1875,0 0.38671875,-0.023437 0.57421875,-0.023437 h 0.609375 c 0.30468746,0 1.03124996,0.023437 1.33593746,0.023437 0.09375,0 0.2578125,0 0.2578125,-0.2578125 0,-0.1523438 -0.09375,-0.1523438 -0.3398437,-0.1523438 -0.65625,0 -0.703125,-0.1054687 -0.703125,-0.2109375 0,-0.1757812 0.6445312,-2.64843747 0.7265625,-2.97656247 0.1640625,0.41015625 0.5507812,0.9609375 1.2890625,0.9609375 1.6289062,0 3.375,-2.10937503 3.375,-4.21875003 0,-1.3125 -0.75,-2.25 -1.8164063,-2.25 -0.9257812,0 -1.6992187,0.890625 -1.8515625,1.0898438 -0.1171875,-0.7148438 -0.6796875,-1.0898438 -1.2539062,-1.0898438 -0.4101563,0 -0.7382813,0.1992188 -1.01953126,0.75 -0.2578125,0.515625 -0.45703125,1.3945313 -0.45703125,1.4414063 0,0.058594 0.0585938,0.140625 0.1640625,0.140625 0.10546875,0 0.12890625,-0.023437 0.2109375,-0.3515625 0.21093751,-0.84375 0.49218751,-1.6875 1.06640621,-1.6875 0.328125,0 0.4453125,0.2226562 0.4453125,0.65625 0,0.3398437 -0.046875,0.4921875 -0.1054687,0.75 z M 3.0927734,-4.4753869 c 0.1054688,-0.3984375 0.5039063,-0.8203125 0.7382813,-1.0195312 0.1523437,-0.140625 0.6328125,-0.5390625 1.171875,-0.5390625 0.6328125,0 0.9257812,0.6328125 0.9257812,1.3710937 0,0.6914063 -0.4101562,2.3085938 -0.7617187,3.0585938 -0.3632813,0.77343748 -1.0195313,1.46484373 -1.6875,1.46484373 -0.9726563,0 -1.125,-1.24218753 -1.125,-1.28906253 0,-0.046875 0.023437,-0.1640625 0.035156,-0.234375 z m 0,0"
         style="fill:#231f20;fill-opacity:1;fill-rule:nonzero;stroke:none" />
      <path
         id="path24"
         d="m 10.009766,-4.2146447 c 0,-0.234375 0,-0.2578125 -0.2343754,-0.2578125 -0.609375,0.6328125 -1.4882812,0.6328125 -1.8046875,0.6328125 v 0.3164063 c 0.1992188,0 0.7851563,0 1.3007813,-0.2578125 v 5.15625 c 0,0.3515625 -0.035156,0.4804687 -0.9257813,0.4804687 H 8.0292969 v 0.3046875 c 0.3515625,-0.035156 1.2070312,-0.035156 1.6054687,-0.035156 0.3984374,0 1.2656254,0 1.6171874,0.035156 V 1.8556678 h -0.316406 c -0.902344,0 -0.925781,-0.1171875 -0.925781,-0.4804687 z m 0,0"
         style="fill:#231f20;fill-opacity:1;fill-rule:nonzero;stroke:none" />
      <path
         id="path25"
         d="m 0.62011719,-126.46464 c -0.10546875,0.43359 -0.1640625,0.55078 -0.75,0.55078 -0.17578125,0 -0.31640625,0 -0.31640625,0.26953 0,0.0352 0.0117188,0.14062 0.17578125,0.14062 0.1875,0 0.38671875,-0.0234 0.57421875,-0.0234 h 0.609375 c 0.30468746,0 1.03124996,0.0234 1.33593746,0.0234 0.09375,0 0.2578125,0 0.2578125,-0.25781 0,-0.15234 -0.09375,-0.15234 -0.3398437,-0.15234 -0.65625,0 -0.703125,-0.10547 -0.703125,-0.21094 0,-0.17578 0.6445312,-2.64844 0.7265625,-2.97656 0.1640625,0.41015 0.5507812,0.96093 1.2890625,0.96093 1.6289062,0 3.375,-2.10937 3.375,-4.21875 0,-1.3125 -0.75,-2.25 -1.8164063,-2.25 -0.9257812,0 -1.6992187,0.89063 -1.8515625,1.08985 -0.1171875,-0.71485 -0.6796875,-1.08985 -1.2539062,-1.08985 -0.4101563,0 -0.7382813,0.19922 -1.01953126,0.75 -0.2578125,0.51563 -0.45703125,1.39454 -0.45703125,1.44141 0,0.0586 0.0585938,0.14063 0.1640625,0.14063 0.10546875,0 0.12890625,-0.0234 0.2109375,-0.35157 0.21093751,-0.84375 0.49218751,-1.6875 1.06640621,-1.6875 0.328125,0 0.4453125,0.22266 0.4453125,0.65625 0,0.33985 -0.046875,0.49219 -0.1054687,0.75 z m 2.47265621,-6.29297 c 0.1054688,-0.39844 0.5039063,-0.82032 0.7382813,-1.01953 0.1523437,-0.14063 0.6328125,-0.53907 1.171875,-0.53907 0.6328125,0 0.9257812,0.63282 0.9257812,1.3711 0,0.6914 -0.4101562,2.30859 -0.7617187,3.05859 -0.3632813,0.77344 -1.0195313,1.46484 -1.6875,1.46484 -0.9726563,0 -1.125,-1.24218 -1.125,-1.28906 0,-0.0469 0.023437,-0.16406 0.035156,-0.23437 z m 0,0"
         style="fill:#231f20;fill-opacity:1;fill-rule:nonzero;stroke:none" />
      <path
         id="path26"
         d="m 9.5996094,-138.29472 c 0.046875,-0.11719 0.09375,-0.21094 0.09375,-0.30469 0,-0.29297 -0.2578125,-0.52734 -0.5742188,-0.52734 -0.28125,0 -0.4570312,0.1875 -0.5273437,0.44531 l -1.1835938,4.35937 c 0,0.0117 -0.035156,0.12891 -0.035156,0.12891 0,0.11719 0.2578125,0.1875 0.3398437,0.1875 0.058594,0 0.070312,-0.0352 0.1289063,-0.16406 z m 0,0"
         style="fill:#231f20;fill-opacity:1;fill-rule:nonzero;stroke:none" />
      <path
         id="path27"
         d="m 10.009766,-131.17558 c 0,-0.23438 0,-0.25781 -0.2343754,-0.25781 -0.609375,0.63281 -1.4882812,0.63281 -1.8046875,0.63281 v 0.3164 c 0.1992188,0 0.7851563,0 1.3007813,-0.25781 v 5.15625 c 0,0.35156 -0.035156,0.48047 -0.9257813,0.48047 H 8.0292969 v 0.30469 c 0.3515625,-0.0352 1.2070312,-0.0352 1.6054687,-0.0352 0.3984374,0 1.2656254,0 1.6171874,0.0352 v -0.30469 h -0.316406 c -0.902344,0 -0.925781,-0.11719 -0.925781,-0.48047 z m 0,0"
         style="fill:#231f20;fill-opacity:1;fill-rule:nonzero;stroke:none" />
      <path
         id="path28"
         d="m 175.94141,1.8175819 c -0.10547,0.4335937 -0.16407,0.5507812 -0.75,0.5507812 -0.17579,0 -0.31641,0 -0.31641,0.2695313 0,0.035156 0.0117,0.140625 0.17578,0.140625 0.1875,0 0.38672,-0.023437 0.57422,-0.023437 h 0.60937 c 0.30469,0 1.03125,0.023437 1.33594,0.023437 0.0937,0 0.25781,0 0.25781,-0.2578125 0,-0.1523438 -0.0937,-0.1523438 -0.33984,-0.1523438 -0.65625,0 -0.70312,-0.1054687 -0.70312,-0.2109375 0,-0.1757812 0.64453,-2.64843747 0.72656,-2.97656247 0.16406,0.41015625 0.55078,0.9609375 1.28906,0.9609375 1.62891,0 3.375,-2.10937503 3.375,-4.21875003 0,-1.3125 -0.75,-2.25 -1.81641,-2.25 -0.92578,0 -1.69921,0.890625 -1.85156,1.0898438 -0.11719,-0.7148438 -0.67969,-1.0898438 -1.2539,-1.0898438 -0.41016,0 -0.73829,0.1992188 -1.01954,0.75 -0.25781,0.515625 -0.45703,1.3945313 -0.45703,1.4414063 0,0.058594 0.0586,0.140625 0.16407,0.140625 0.10546,0 0.1289,-0.023437 0.21093,-0.3515625 0.21094,-0.84375 0.49219,-1.6875 1.06641,-1.6875 0.32812,0 0.44531,0.2226562 0.44531,0.65625 0,0.3398437 -0.0469,0.4921875 -0.10547,0.75 z m 2.47265,-6.2929688 c 0.10547,-0.3984375 0.50391,-0.8203125 0.73828,-1.0195312 0.15235,-0.140625 0.63282,-0.5390625 1.17188,-0.5390625 0.63281,0 0.92578,0.6328125 0.92578,1.3710937 0,0.6914063 -0.41016,2.3085938 -0.76172,3.0585938 -0.36328,0.77343748 -1.01953,1.46484373 -1.6875,1.46484373 -0.97266,0 -1.125,-1.24218753 -1.125,-1.28906253 0,-0.046875 0.0234,-0.1640625 0.0352,-0.234375 z m 0,0"
         style="fill:#231f20;fill-opacity:1;fill-rule:nonzero;stroke:none" />
      <path
         id="path29"
         d="m 183.66699,1.3986366 1.05469,-1.03125004 c 1.55859,-1.37109376 2.15625,-1.91015626 2.15625,-2.90624996 0,-1.1367188 -0.90234,-1.9335938 -2.12109,-1.9335938 -1.125,0 -1.85157,0.9140625 -1.85157,1.8046875 0,0.5507813 0.49219,0.5507813 0.52735,0.5507813 0.16406,0 0.51562,-0.1171875 0.51562,-0.5273438 0,-0.2578125 -0.1875,-0.515625 -0.52734,-0.515625 -0.082,0 -0.10547,0 -0.12891,0.011719 0.22266,-0.6445313 0.76172,-1.0195313 1.33594,-1.0195313 0.91406,0 1.33594,0.8085938 1.33594,1.6289063 0,0.796875 -0.49219,1.58203121 -1.04297,2.20312496 l -1.91016,2.13281254 c -0.10547,0.1054687 -0.10547,0.1289062 -0.10547,0.3632812 h 3.69141 l 0.28125,-1.73437499 h -0.25781 c -0.0469,0.3046875 -0.11719,0.73828129 -0.21094,0.89062499 -0.0703,0.082031 -0.72656,0.082031 -0.94922,0.082031 z m 0,0"
         style="fill:#231f20;fill-opacity:1;fill-rule:nonzero;stroke:none" />
      <path
         id="path30"
         d="m 175.94141,-126.46464 c -0.10547,0.43359 -0.16407,0.55078 -0.75,0.55078 -0.17579,0 -0.31641,0 -0.31641,0.26953 0,0.0352 0.0117,0.14062 0.17578,0.14062 0.1875,0 0.38672,-0.0234 0.57422,-0.0234 h 0.60937 c 0.30469,0 1.03125,0.0234 1.33594,0.0234 0.0937,0 0.25781,0 0.25781,-0.25781 0,-0.15234 -0.0937,-0.15234 -0.33984,-0.15234 -0.65625,0 -0.70312,-0.10547 -0.70312,-0.21094 0,-0.17578 0.64453,-2.64844 0.72656,-2.97656 0.16406,0.41015 0.55078,0.96093 1.28906,0.96093 1.62891,0 3.375,-2.10937 3.375,-4.21875 0,-1.3125 -0.75,-2.25 -1.81641,-2.25 -0.92578,0 -1.69921,0.89063 -1.85156,1.08985 -0.11719,-0.71485 -0.67969,-1.08985 -1.2539,-1.08985 -0.41016,0 -0.73829,0.19922 -1.01954,0.75 -0.25781,0.51563 -0.45703,1.39454 -0.45703,1.44141 0,0.0586 0.0586,0.14063 0.16407,0.14063 0.10546,0 0.1289,-0.0234 0.21093,-0.35157 0.21094,-0.84375 0.49219,-1.6875 1.06641,-1.6875 0.32812,0 0.44531,0.22266 0.44531,0.65625 0,0.33985 -0.0469,0.49219 -0.10547,0.75 z m 2.47265,-6.29297 c 0.10547,-0.39844 0.50391,-0.82032 0.73828,-1.01953 0.15235,-0.14063 0.63282,-0.53907 1.17188,-0.53907 0.63281,0 0.92578,0.63282 0.92578,1.3711 0,0.6914 -0.41016,2.30859 -0.76172,3.05859 -0.36328,0.77344 -1.01953,1.46484 -1.6875,1.46484 -0.97266,0 -1.125,-1.24218 -1.125,-1.28906 0,-0.0469 0.0234,-0.16406 0.0352,-0.23437 z m 0,0"
         style="fill:#231f20;fill-opacity:1;fill-rule:nonzero;stroke:none" />
      <path
         id="path31"
         d="m 184.9209,-138.29472 c 0.0469,-0.11719 0.0937,-0.21094 0.0937,-0.30469 0,-0.29297 -0.25781,-0.52734 -0.57422,-0.52734 -0.28125,0 -0.45703,0.1875 -0.52734,0.44531 l -1.1836,4.35937 c 0,0.0117 -0.0351,0.12891 -0.0351,0.12891 0,0.11719 0.25781,0.1875 0.33984,0.1875 0.0586,0 0.0703,-0.0352 0.12891,-0.16406 z m 0,0"
         style="fill:#231f20;fill-opacity:1;fill-rule:nonzero;stroke:none" />
      <path
         id="path32"
         d="m 183.66699,-125.5623 1.05469,-1.03125 c 1.55859,-1.37109 2.15625,-1.91016 2.15625,-2.90625 0,-1.13672 -0.90234,-1.93359 -2.12109,-1.93359 -1.125,0 -1.85157,0.91406 -1.85157,1.80468 0,0.55078 0.49219,0.55078 0.52735,0.55078 0.16406,0 0.51562,-0.11718 0.51562,-0.52734 0,-0.25781 -0.1875,-0.51562 -0.52734,-0.51562 -0.082,0 -0.10547,0 -0.12891,0.0117 0.22266,-0.64453 0.76172,-1.01953 1.33594,-1.01953 0.91406,0 1.33594,0.8086 1.33594,1.62891 0,0.79687 -0.49219,1.58203 -1.04297,2.20312 l -1.91016,2.13282 c -0.10547,0.10547 -0.10547,0.1289 -0.10547,0.36328 h 3.69141 l 0.28125,-1.73438 h -0.25781 c -0.0469,0.30469 -0.11719,0.73828 -0.21094,0.89063 -0.0703,0.082 -0.72656,0.082 -0.94922,0.082 z m 0,0"
         style="fill:#231f20;fill-opacity:1;fill-rule:nonzero;stroke:none" />
      <path
         id="path33"
         d="m 38.249023,-101.8289 c 0,-0.0703 -0.05859,-0.12891 -0.128906,-0.12891 -0.117187,0 -0.679687,0.52735 -0.949219,1.01953 -0.257812,-0.64453 -0.703125,-1.03125 -1.324218,-1.03125 -1.617188,0 -3.363282,2.097659 -3.363282,4.218753 0,1.417968 0.832032,2.25 1.804688,2.25 0.761719,0 1.394531,-0.574219 1.6875,-0.902344 l 0.02344,0.01172 -0.550781,2.15625 -0.128906,0.515625 c -0.128906,0.433593 -0.339844,0.433593 -1.019531,0.445312 -0.152344,0 -0.304688,0 -0.304688,0.269531 0,0.105469 0.09375,0.140625 0.1875,0.140625 0.210938,0 0.46875,-0.02344 0.667969,-0.02344 h 1.464844 c 0.210937,0 0.457031,0.02344 0.667968,0.02344 0.08203,0 0.257813,0 0.257813,-0.269531 0,-0.140625 -0.117188,-0.140625 -0.328125,-0.140625 -0.679688,0 -0.714844,-0.105469 -0.714844,-0.210937 0,-0.08203 0.01172,-0.09375 0.05859,-0.28125 z m -2.027343,4.47656 c -0.07031,0.246094 -0.07031,0.28125 -0.269532,0.550781 -0.316406,0.398438 -0.949218,1.019532 -1.617187,1.019532 -0.597656,0 -0.925781,-0.539063 -0.925781,-1.382813 0,-0.785156 0.445312,-2.390625 0.714843,-3 0.492188,-0.99609 1.171875,-1.51172 1.722657,-1.51172 0.949218,0 1.136718,1.17188 1.136718,1.28906 0,0.0117 -0.04687,0.19922 -0.05859,0.22266 z m 113.625,-4.47656 c 0,-0.0703 -0.0586,-0.12891 -0.12891,-0.12891 -0.11718,0 -0.67968,0.52735 -0.94922,1.01953 -0.25781,-0.64453 -0.70312,-1.03125 -1.32421,-1.03125 -1.61719,0 -3.36329,2.097659 -3.36329,4.218753 0,1.417968 0.83204,2.25 1.80469,2.25 0.76172,0 1.39453,-0.574219 1.6875,-0.902344 l 0.0234,0.01172 -0.55078,2.15625 -0.12891,0.515625 c -0.1289,0.433593 -0.33984,0.433593 -1.01953,0.445312 -0.15234,0 -0.30469,0 -0.30469,0.269531 0,0.105469 0.0937,0.140625 0.1875,0.140625 0.21094,0 0.46875,-0.02344 0.66797,-0.02344 h 1.46485 c 0.21093,0 0.45703,0.02344 0.66796,0.02344 0.082,0 0.25782,0 0.25782,-0.269531 0,-0.140625 -0.11719,-0.140625 -0.32813,-0.140625 -0.67969,0 -0.71484,-0.105469 -0.71484,-0.210937 0,-0.08203 0.0117,-0.09375 0.0586,-0.28125 z m -2.02734,4.47656 c -0.0703,0.246094 -0.0703,0.28125 -0.26954,0.550781 -0.3164,0.398438 -0.94921,1.019532 -1.61718,1.019532 -0.59766,0 -0.92578,-0.539063 -0.92578,-1.382813 0,-0.785156 0.44531,-2.390625 0.71484,-3 0.49219,-0.99609 1.17187,-1.51172 1.72266,-1.51172 0.94921,0 1.13671,1.17188 1.13671,1.28906 0,0.0117 -0.0469,0.19922 -0.0586,0.22266 z m -48.149418,-37.0459 c 0.01172,-0.0586 0.04687,-0.14062 0.04687,-0.21094 0,-0.14062 -0.152344,-0.14062 -0.175781,-0.14062 -0.01172,0 -0.527344,0.0352 -0.785157,0.0703 -0.246093,0.0117 -0.46875,0.0352 -0.726562,0.0586 -0.339844,0.0234 -0.445313,0.0352 -0.445313,0.29296 0,0.15235 0.152344,0.15235 0.292969,0.15235 0.726563,0 0.726563,0.1289 0.726563,0.26953 0,0.0586 0,0.082 -0.07031,0.33984 l -2.050781,8.20313 c -0.05859,0.22265 -0.05859,0.24609 -0.05859,0.32812 0,0.31641 0.246094,0.375 0.386719,0.375 0.410156,0 0.492187,-0.3164 0.609375,-0.76172 l 0.667969,-2.68359 c 1.03125,0.11719 1.652343,0.55078 1.652343,1.24219 0,0.082 0,0.14062 -0.04687,0.35156 -0.05859,0.22266 -0.05859,0.38672 -0.05859,0.46875 0,0.83203 0.550784,1.38281 1.277344,1.38281 0.66797,0 1.00781,-0.59765 1.125,-0.79687 0.30469,-0.53906 0.49219,-1.33594 0.49219,-1.39453 0,-0.0703 -0.0586,-0.12891 -0.15235,-0.12891 -0.1289,0 -0.14062,0.0586 -0.19922,0.28125 -0.19921,0.75 -0.5039,1.75781 -1.23046,1.75781 -0.29297,0 -0.48047,-0.14062 -0.48047,-0.6914 0,-0.26953 0.0586,-0.58594 0.11718,-0.8086 0.0586,-0.25781 0.0586,-0.26953 0.0586,-0.43359 0,-0.85547 -0.761721,-1.32422 -2.074221,-1.5 0.515625,-0.31641 1.03125,-0.86719 1.230469,-1.08984 0.820312,-0.91407 1.371092,-1.3711 2.039062,-1.3711 0.32813,0 0.41016,0.082 0.51563,0.16406 -0.52735,0.0586 -0.73829,0.4336 -0.73829,0.72657 0,0.33984 0.28125,0.45703 0.48047,0.45703 0.38672,0 0.72657,-0.32813 0.72657,-0.79688 0,-0.41015 -0.32813,-0.84375 -0.97266,-0.84375 -0.78516,0 -1.42969,0.5625 -2.449219,1.71094 -0.152344,0.17578 -0.679688,0.71484 -1.207032,0.91406 z m 0,108.840822 c 0.01172,-0.05859 0.04687,-0.140625 0.04687,-0.210938 0,-0.140625 -0.152344,-0.140625 -0.175781,-0.140625 -0.01172,0 -0.527344,0.03516 -0.785157,0.07031 -0.246093,0.01172 -0.46875,0.03516 -0.726562,0.05859 -0.339844,0.02344 -0.445313,0.03516 -0.445313,0.292968 0,0.152344 0.152344,0.152344 0.292969,0.152344 0.726563,0 0.726563,0.128906 0.726563,0.269531 0,0.05859 0,0.08203 -0.07031,0.339844 l -2.050781,8.203125 c -0.05859,0.222656 -0.05859,0.246094 -0.05859,0.328125 0,0.316406 0.246094,0.375 0.386719,0.375 0.410156,0 0.492187,-0.316406 0.609375,-0.761719 l 0.667969,-2.683593 c 1.03125,0.117187 1.652343,0.550781 1.652343,1.242187 0,0.08203 0,0.140625 -0.04687,0.351563 -0.05859,0.222656 -0.05859,0.386718 -0.05859,0.46875 0,0.832031 0.550784,1.382812 1.277344,1.382812 0.66797,0 1.00781,-0.597656 1.125,-0.796875 0.30469,-0.539062 0.49219,-1.335937 0.49219,-1.394531 0,-0.07031 -0.0586,-0.128906 -0.15235,-0.128906 -0.1289,0 -0.14062,0.05859 -0.19922,0.28125 -0.19921,0.75 -0.5039,1.757812 -1.23046,1.757812 -0.29297,0 -0.48047,-0.140625 -0.48047,-0.691406 0,-0.269531 0.0586,-0.585938 0.11718,-0.808594 0.0586,-0.257812 0.0586,-0.269531 0.0586,-0.433594 0,-0.855468 -0.761721,-1.324218 -2.074221,-1.5 0.515625,-0.316406 1.03125,-0.867187 1.230469,-1.089843 0.820312,-0.914063 1.371092,-1.371094 2.039062,-1.371094 0.32813,0 0.41016,0.08203 0.51563,0.164062 -0.52735,0.05859 -0.73829,0.433594 -0.73829,0.726563 0,0.339844 0.28125,0.457031 0.48047,0.457031 0.38672,0 0.72657,-0.328125 0.72657,-0.796875 0,-0.410156 -0.32813,-0.84375 -0.97266,-0.84375 -0.78516,0 -1.42969,0.5625 -2.449219,1.710938 -0.152344,0.175781 -0.679688,0.714843 -1.207032,0.914062 z m 0,0"
         style="fill:#231f20;fill-opacity:1;fill-rule:nonzero;stroke:none" />
      <path
         id="path34"
         d="m 116.01758,-19.264449 c 0.23437,0 0.49219,0 0.49219,-0.28125 0,-0.28125 -0.25782,-0.28125 -0.49219,-0.28125 h -7.76953 c -0.23438,0 -0.49219,0 -0.49219,0.28125 0,0.28125 0.25781,0.28125 0.49219,0.28125 z m 0,0"
         style="fill:#231f20;fill-opacity:1;fill-rule:nonzero;stroke:none" />
      <path
         id="path35"
         d="m 127.28809,-22.147262 c 0,-0.07031 -0.0586,-0.128906 -0.12891,-0.128906 -0.11719,0 -0.67969,0.527344 -0.94922,1.019531 -0.25781,-0.644531 -0.70312,-1.03125 -1.32422,-1.03125 -1.61719,0 -3.36328,2.097656 -3.36328,4.21875 0,1.417969 0.83203,2.25 1.80469,2.25 0.76172,0 1.39453,-0.574219 1.6875,-0.902344 l 0.0234,0.01172 -0.55079,2.15625 -0.1289,0.515625 c -0.12891,0.433594 -0.33985,0.433594 -1.01953,0.445313 -0.15235,0 -0.30469,0 -0.30469,0.269531 0,0.105469 0.0937,0.140625 0.1875,0.140625 0.21094,0 0.46875,-0.02344 0.66797,-0.02344 h 1.46484 c 0.21094,0 0.45703,0.02344 0.66797,0.02344 0.082,0 0.25781,0 0.25781,-0.269531 0,-0.140625 -0.11718,-0.140625 -0.32812,-0.140625 -0.67969,0 -0.71485,-0.105469 -0.71485,-0.210938 0,-0.08203 0.0117,-0.09375 0.0586,-0.28125 z m -2.02735,4.476563 c -0.0703,0.246093 -0.0703,0.28125 -0.26953,0.550781 -0.31641,0.398437 -0.94922,1.019531 -1.61719,1.019531 -0.59765,0 -0.92578,-0.539062 -0.92578,-1.382812 0,-0.785157 0.44531,-2.390625 0.71485,-3 0.49218,-0.996094 1.17187,-1.511719 1.72265,-1.511719 0.94922,0 1.13672,1.171875 1.13672,1.289062 0,0.01172 -0.0469,0.199219 -0.0586,0.222657 z m 0,0"
         style="fill:#231f20;fill-opacity:1;fill-rule:nonzero;stroke:none" />
    </g>
    <rect
       id="rect35"
       x="0"
       y="0"
       width="1"
       height="1"
       style="fill:#ffffff;fill-opacity:1;fill-rule:nonzero"
       transform="matrix(320.8,0,0,-0.64,1.7973333,1.8293333)" />
    <rect
       id="rect36"
       x="0"
       y="0"
       width="1"
       height="1"
       style="fill:#ffffff;fill-opacity:1;fill-rule:nonzero"
       transform="matrix(0.64,0,0,-223.84,1.7973333,225.34933)" />
    <rect
       id="rect37"
       x="0"
       y="0"
       width="1"
       height="1"
       style="fill:#ffffff;fill-opacity:1;fill-rule:nonzero"
       transform="matrix(0.64,0,0,-223.84,321.95733,225.34933)" />
    <rect
       id="rect38"
       x="0"
       y="0"
       width="1"
       height="1"
       style="fill:#ffffff;fill-opacity:1;fill-rule:nonzero"
       transform="matrix(320.8,0,0,-0.64,1.7973333,225.66932)" />
  </g>
</svg>
