<?xml version="1.0" encoding="utf-8"?>
<svg xmlns="http://www.w3.org/2000/svg" xmlns:xlink="http://www.w3.org/1999/xlink" width="256" height="256" viewBox="0 0 1024 1024">
<defs>
  <clipPath id="clip580">
    <rect x="0" y="0" width="1024" height="1024"/>
  </clipPath>
</defs>
<path clip-path="url(#clip580)" d="M0 1024 L1024 1024 L1024 0 L0 0  Z" fill="#ffffff" fill-rule="evenodd" fill-opacity="1"/>
<defs>
  <clipPath id="clip581">
    <rect x="252" y="47" width="726" height="766"/>
  </clipPath>
</defs>
<path clip-path="url(#clip580)" d="M252.135 811.9 L976.756 811.9 L976.756 47.2441 L252.135 47.2441  Z" fill="#ffffff" fill-rule="evenodd" fill-opacity="1"/>
<polyline clip-path="url(#clip580)" style="stroke:#000000; stroke-linecap:round; stroke-linejoin:round; stroke-width:4; stroke-opacity:1; fill:none" points="252.135,811.9 976.756,811.9 "/>
<polyline clip-path="url(#clip580)" style="stroke:#000000; stroke-linecap:round; stroke-linejoin:round; stroke-width:4; stroke-opacity:1; fill:none" points="252.135,47.2441 976.756,47.2441 "/>
<polyline clip-path="url(#clip580)" style="stroke:#000000; stroke-linecap:round; stroke-linejoin:round; stroke-width:4; stroke-opacity:1; fill:none" points="272.643,811.9 272.643,793.002 "/>
<polyline clip-path="url(#clip580)" style="stroke:#000000; stroke-linecap:round; stroke-linejoin:round; stroke-width:4; stroke-opacity:1; fill:none" points="445.27,811.9 445.27,793.002 "/>
<polyline clip-path="url(#clip580)" style="stroke:#000000; stroke-linecap:round; stroke-linejoin:round; stroke-width:4; stroke-opacity:1; fill:none" points="617.898,811.9 617.898,793.002 "/>
<polyline clip-path="url(#clip580)" style="stroke:#000000; stroke-linecap:round; stroke-linejoin:round; stroke-width:4; stroke-opacity:1; fill:none" points="790.525,811.9 790.525,793.002 "/>
<polyline clip-path="url(#clip580)" style="stroke:#000000; stroke-linecap:round; stroke-linejoin:round; stroke-width:4; stroke-opacity:1; fill:none" points="963.153,811.9 963.153,793.002 "/>
<polyline clip-path="url(#clip580)" style="stroke:#000000; stroke-linecap:round; stroke-linejoin:round; stroke-width:4; stroke-opacity:1; fill:none" points="272.643,47.2441 272.643,66.1417 "/>
<polyline clip-path="url(#clip580)" style="stroke:#000000; stroke-linecap:round; stroke-linejoin:round; stroke-width:4; stroke-opacity:1; fill:none" points="445.27,47.2441 445.27,66.1417 "/>
<polyline clip-path="url(#clip580)" style="stroke:#000000; stroke-linecap:round; stroke-linejoin:round; stroke-width:4; stroke-opacity:1; fill:none" points="617.898,47.2441 617.898,66.1417 "/>
<polyline clip-path="url(#clip580)" style="stroke:#000000; stroke-linecap:round; stroke-linejoin:round; stroke-width:4; stroke-opacity:1; fill:none" points="790.525,47.2441 790.525,66.1417 "/>
<polyline clip-path="url(#clip580)" style="stroke:#000000; stroke-linecap:round; stroke-linejoin:round; stroke-width:4; stroke-opacity:1; fill:none" points="963.153,47.2441 963.153,66.1417 "/>
<path clip-path="url(#clip580)" d="M250.027 831.811 Q246.416 831.811 244.587 835.375 Q242.782 838.917 242.782 846.047 Q242.782 853.153 244.587 856.718 Q246.416 860.259 250.027 860.259 Q253.661 860.259 255.467 856.718 Q257.296 853.153 257.296 846.047 Q257.296 838.917 255.467 835.375 Q253.661 831.811 250.027 831.811 M250.027 828.107 Q255.837 828.107 258.893 832.713 Q261.972 837.297 261.972 846.047 Q261.972 854.773 258.893 859.38 Q255.837 863.963 250.027 863.963 Q244.217 863.963 241.138 859.38 Q238.083 854.773 238.083 846.047 Q238.083 837.297 241.138 832.713 Q244.217 828.107 250.027 828.107 Z" fill="#000000" fill-rule="nonzero" fill-opacity="1" /><path clip-path="url(#clip580)" d="M270.189 857.412 L275.073 857.412 L275.073 863.292 L270.189 863.292 L270.189 857.412 Z" fill="#000000" fill-rule="nonzero" fill-opacity="1" /><path clip-path="url(#clip580)" d="M295.258 831.811 Q291.647 831.811 289.819 835.375 Q288.013 838.917 288.013 846.047 Q288.013 853.153 289.819 856.718 Q291.647 860.259 295.258 860.259 Q298.893 860.259 300.698 856.718 Q302.527 853.153 302.527 846.047 Q302.527 838.917 300.698 835.375 Q298.893 831.811 295.258 831.811 M295.258 828.107 Q301.069 828.107 304.124 832.713 Q307.203 837.297 307.203 846.047 Q307.203 854.773 304.124 859.38 Q301.069 863.963 295.258 863.963 Q289.448 863.963 286.37 859.38 Q283.314 854.773 283.314 846.047 Q283.314 837.297 286.37 832.713 Q289.448 828.107 295.258 828.107 Z" fill="#000000" fill-rule="nonzero" fill-opacity="1" /><path clip-path="url(#clip580)" d="M417.007 859.357 L433.326 859.357 L433.326 863.292 L411.382 863.292 L411.382 859.357 Q414.044 856.602 418.627 851.972 Q423.233 847.32 424.414 845.977 Q426.659 843.454 427.539 841.718 Q428.442 839.959 428.442 838.269 Q428.442 835.514 426.497 833.778 Q424.576 832.042 421.474 832.042 Q419.275 832.042 416.821 832.806 Q414.391 833.57 411.613 835.121 L411.613 830.399 Q414.437 829.264 416.891 828.686 Q419.345 828.107 421.382 828.107 Q426.752 828.107 429.946 830.792 Q433.141 833.477 433.141 837.968 Q433.141 840.098 432.331 842.019 Q431.544 843.917 429.437 846.51 Q428.858 847.181 425.757 850.398 Q422.655 853.593 417.007 859.357 Z" fill="#000000" fill-rule="nonzero" fill-opacity="1" /><path clip-path="url(#clip580)" d="M443.141 857.412 L448.025 857.412 L448.025 863.292 L443.141 863.292 L443.141 857.412 Z" fill="#000000" fill-rule="nonzero" fill-opacity="1" /><path clip-path="url(#clip580)" d="M458.256 828.732 L476.613 828.732 L476.613 832.667 L462.539 832.667 L462.539 841.139 Q463.557 840.792 464.576 840.63 Q465.594 840.445 466.613 840.445 Q472.4 840.445 475.779 843.616 Q479.159 846.787 479.159 852.204 Q479.159 857.783 475.687 860.884 Q472.215 863.963 465.895 863.963 Q463.719 863.963 461.451 863.593 Q459.205 863.222 456.798 862.482 L456.798 857.783 Q458.881 858.917 461.104 859.472 Q463.326 860.028 465.803 860.028 Q469.807 860.028 472.145 857.922 Q474.483 855.815 474.483 852.204 Q474.483 848.593 472.145 846.486 Q469.807 844.38 465.803 844.38 Q463.928 844.38 462.053 844.797 Q460.201 845.213 458.256 846.093 L458.256 828.732 Z" fill="#000000" fill-rule="nonzero" fill-opacity="1" /><path clip-path="url(#clip580)" d="M585.062 828.732 L603.419 828.732 L603.419 832.667 L589.345 832.667 L589.345 841.139 Q590.363 840.792 591.382 840.63 Q592.4 840.445 593.419 840.445 Q599.206 840.445 602.585 843.616 Q605.965 846.787 605.965 852.204 Q605.965 857.783 602.493 860.884 Q599.021 863.963 592.701 863.963 Q590.525 863.963 588.257 863.593 Q586.011 863.222 583.604 862.482 L583.604 857.783 Q585.687 858.917 587.91 859.472 Q590.132 860.028 592.609 860.028 Q596.613 860.028 598.951 857.922 Q601.289 855.815 601.289 852.204 Q601.289 848.593 598.951 846.486 Q596.613 844.38 592.609 844.38 Q590.734 844.38 588.859 844.797 Q587.007 845.213 585.062 846.093 L585.062 828.732 Z" fill="#000000" fill-rule="nonzero" fill-opacity="1" /><path clip-path="url(#clip580)" d="M615.178 857.412 L620.062 857.412 L620.062 863.292 L615.178 863.292 L615.178 857.412 Z" fill="#000000" fill-rule="nonzero" fill-opacity="1" /><path clip-path="url(#clip580)" d="M640.247 831.811 Q636.636 831.811 634.807 835.375 Q633.002 838.917 633.002 846.047 Q633.002 853.153 634.807 856.718 Q636.636 860.259 640.247 860.259 Q643.881 860.259 645.687 856.718 Q647.516 853.153 647.516 846.047 Q647.516 838.917 645.687 835.375 Q643.881 831.811 640.247 831.811 M640.247 828.107 Q646.057 828.107 649.113 832.713 Q652.192 837.297 652.192 846.047 Q652.192 854.773 649.113 859.38 Q646.057 863.963 640.247 863.963 Q634.437 863.963 631.358 859.38 Q628.303 854.773 628.303 846.047 Q628.303 837.297 631.358 832.713 Q634.437 828.107 640.247 828.107 Z" fill="#000000" fill-rule="nonzero" fill-opacity="1" /><path clip-path="url(#clip580)" d="M756.845 828.732 L779.067 828.732 L779.067 830.723 L766.521 863.292 L761.637 863.292 L773.442 832.667 L756.845 832.667 L756.845 828.732 Z" fill="#000000" fill-rule="nonzero" fill-opacity="1" /><path clip-path="url(#clip580)" d="M788.187 857.412 L793.072 857.412 L793.072 863.292 L788.187 863.292 L788.187 857.412 Z" fill="#000000" fill-rule="nonzero" fill-opacity="1" /><path clip-path="url(#clip580)" d="M803.303 828.732 L821.659 828.732 L821.659 832.667 L807.585 832.667 L807.585 841.139 Q808.604 840.792 809.622 840.63 Q810.641 840.445 811.659 840.445 Q817.446 840.445 820.826 843.616 Q824.206 846.787 824.206 852.204 Q824.206 857.783 820.734 860.884 Q817.261 863.963 810.942 863.963 Q808.766 863.963 806.497 863.593 Q804.252 863.222 801.845 862.482 L801.845 857.783 Q803.928 858.917 806.15 859.472 Q808.372 860.028 810.849 860.028 Q814.854 860.028 817.192 857.922 Q819.53 855.815 819.53 852.204 Q819.53 848.593 817.192 846.486 Q814.854 844.38 810.849 844.38 Q808.974 844.38 807.099 844.797 Q805.247 845.213 803.303 846.093 L803.303 828.732 Z" fill="#000000" fill-rule="nonzero" fill-opacity="1" /><path clip-path="url(#clip580)" d="M915.225 859.357 L922.864 859.357 L922.864 832.991 L914.554 834.658 L914.554 830.399 L922.817 828.732 L927.493 828.732 L927.493 859.357 L935.132 859.357 L935.132 863.292 L915.225 863.292 L915.225 859.357 Z" fill="#000000" fill-rule="nonzero" fill-opacity="1" /><path clip-path="url(#clip580)" d="M954.577 831.811 Q950.965 831.811 949.137 835.375 Q947.331 838.917 947.331 846.047 Q947.331 853.153 949.137 856.718 Q950.965 860.259 954.577 860.259 Q958.211 860.259 960.016 856.718 Q961.845 853.153 961.845 846.047 Q961.845 838.917 960.016 835.375 Q958.211 831.811 954.577 831.811 M954.577 828.107 Q960.387 828.107 963.442 832.713 Q966.521 837.297 966.521 846.047 Q966.521 854.773 963.442 859.38 Q960.387 863.963 954.577 863.963 Q948.766 863.963 945.688 859.38 Q942.632 854.773 942.632 846.047 Q942.632 837.297 945.688 832.713 Q948.766 828.107 954.577 828.107 Z" fill="#000000" fill-rule="nonzero" fill-opacity="1" /><path clip-path="url(#clip580)" d="M974.738 857.412 L979.623 857.412 L979.623 863.292 L974.738 863.292 L974.738 857.412 Z" fill="#000000" fill-rule="nonzero" fill-opacity="1" /><path clip-path="url(#clip580)" d="M999.808 831.811 Q996.197 831.811 994.368 835.375 Q992.562 838.917 992.562 846.047 Q992.562 853.153 994.368 856.718 Q996.197 860.259 999.808 860.259 Q1003.44 860.259 1005.25 856.718 Q1007.08 853.153 1007.08 846.047 Q1007.08 838.917 1005.25 835.375 Q1003.44 831.811 999.808 831.811 M999.808 828.107 Q1005.62 828.107 1008.67 832.713 Q1011.75 837.297 1011.75 846.047 Q1011.75 854.773 1008.67 859.38 Q1005.62 863.963 999.808 863.963 Q993.998 863.963 990.919 859.38 Q987.863 854.773 987.863 846.047 Q987.863 837.297 990.919 832.713 Q993.998 828.107 999.808 828.107 Z" fill="#000000" fill-rule="nonzero" fill-opacity="1" /><path clip-path="url(#clip580)" d="M553.605 890.354 L553.605 900.476 L565.668 900.476 L565.668 905.027 L553.605 905.027 L553.605 924.379 Q553.605 928.74 554.783 929.981 Q555.992 931.222 559.652 931.222 L565.668 931.222 L565.668 936.124 L559.652 936.124 Q552.873 936.124 550.295 933.609 Q547.717 931.063 547.717 924.379 L547.717 905.027 L543.42 905.027 L543.42 900.476 L547.717 900.476 L547.717 890.354 L553.605 890.354 Z" fill="#000000" fill-rule="nonzero" fill-opacity="1" /><path clip-path="url(#clip580)" d="M573.371 900.476 L579.227 900.476 L579.227 936.124 L573.371 936.124 L573.371 900.476 M573.371 886.599 L579.227 886.599 L579.227 894.015 L573.371 894.015 L573.371 886.599 Z" fill="#000000" fill-rule="nonzero" fill-opacity="1" /><path clip-path="url(#clip580)" d="M619.235 907.319 Q621.432 903.372 624.487 901.494 Q627.543 899.617 631.68 899.617 Q637.25 899.617 640.274 903.531 Q643.298 907.415 643.298 914.608 L643.298 936.124 L637.41 936.124 L637.41 914.799 Q637.41 909.674 635.595 907.192 Q633.781 904.709 630.057 904.709 Q625.506 904.709 622.864 907.733 Q620.222 910.757 620.222 915.976 L620.222 936.124 L614.334 936.124 L614.334 914.799 Q614.334 909.643 612.52 907.192 Q610.705 904.709 606.918 904.709 Q602.43 904.709 599.788 907.765 Q597.146 910.788 597.146 915.976 L597.146 936.124 L591.258 936.124 L591.258 900.476 L597.146 900.476 L597.146 906.014 Q599.152 902.736 601.953 901.176 Q604.753 899.617 608.605 899.617 Q612.488 899.617 615.193 901.59 Q617.931 903.563 619.235 907.319 Z" fill="#000000" fill-rule="nonzero" fill-opacity="1" /><path clip-path="url(#clip580)" d="M685.471 916.836 L685.471 919.7 L658.544 919.7 Q658.926 925.748 662.172 928.931 Q665.451 932.082 671.275 932.082 Q674.649 932.082 677.8 931.254 Q680.983 930.427 684.102 928.771 L684.102 934.31 Q680.951 935.646 677.641 936.347 Q674.331 937.047 670.925 937.047 Q662.395 937.047 657.398 932.082 Q652.433 927.116 652.433 918.65 Q652.433 909.897 657.143 904.773 Q661.886 899.617 669.907 899.617 Q677.1 899.617 681.269 904.263 Q685.471 908.879 685.471 916.836 M679.614 915.117 Q679.551 910.311 676.909 907.446 Q674.299 904.582 669.97 904.582 Q665.069 904.582 662.109 907.351 Q659.18 910.12 658.735 915.149 L679.614 915.117 Z" fill="#000000" fill-rule="nonzero" fill-opacity="1" /><polyline clip-path="url(#clip580)" style="stroke:#000000; stroke-linecap:round; stroke-linejoin:round; stroke-width:4; stroke-opacity:1; fill:none" points="252.135,811.9 252.135,47.2441 "/>
<polyline clip-path="url(#clip580)" style="stroke:#000000; stroke-linecap:round; stroke-linejoin:round; stroke-width:4; stroke-opacity:1; fill:none" points="976.756,811.9 976.756,47.2441 "/>
<polyline clip-path="url(#clip580)" style="stroke:#000000; stroke-linecap:round; stroke-linejoin:round; stroke-width:4; stroke-opacity:1; fill:none" points="252.135,717.773 271.032,717.773 "/>
<polyline clip-path="url(#clip580)" style="stroke:#000000; stroke-linecap:round; stroke-linejoin:round; stroke-width:4; stroke-opacity:1; fill:none" points="252.135,542.205 271.032,542.205 "/>
<polyline clip-path="url(#clip580)" style="stroke:#000000; stroke-linecap:round; stroke-linejoin:round; stroke-width:4; stroke-opacity:1; fill:none" points="252.135,366.636 271.032,366.636 "/>
<polyline clip-path="url(#clip580)" style="stroke:#000000; stroke-linecap:round; stroke-linejoin:round; stroke-width:4; stroke-opacity:1; fill:none" points="252.135,191.068 271.032,191.068 "/>
<polyline clip-path="url(#clip580)" style="stroke:#000000; stroke-linecap:round; stroke-linejoin:round; stroke-width:4; stroke-opacity:1; fill:none" points="976.756,717.773 957.858,717.773 "/>
<polyline clip-path="url(#clip580)" style="stroke:#000000; stroke-linecap:round; stroke-linejoin:round; stroke-width:4; stroke-opacity:1; fill:none" points="976.756,542.205 957.858,542.205 "/>
<polyline clip-path="url(#clip580)" style="stroke:#000000; stroke-linecap:round; stroke-linejoin:round; stroke-width:4; stroke-opacity:1; fill:none" points="976.756,366.636 957.858,366.636 "/>
<polyline clip-path="url(#clip580)" style="stroke:#000000; stroke-linecap:round; stroke-linejoin:round; stroke-width:4; stroke-opacity:1; fill:none" points="976.756,191.068 957.858,191.068 "/>
<path clip-path="url(#clip580)" d="M144.9 718.225 L174.576 718.225 L174.576 722.16 L144.9 722.16 L144.9 718.225 Z" fill="#000000" fill-rule="nonzero" fill-opacity="1" /><path clip-path="url(#clip580)" d="M184.715 700.493 L203.071 700.493 L203.071 704.429 L188.997 704.429 L188.997 712.901 Q190.016 712.553 191.034 712.391 Q192.053 712.206 193.071 712.206 Q198.858 712.206 202.238 715.378 Q205.617 718.549 205.617 723.965 Q205.617 729.544 202.145 732.646 Q198.673 735.725 192.354 735.725 Q190.178 735.725 187.909 735.354 Q185.664 734.984 183.256 734.243 L183.256 729.544 Q185.34 730.678 187.562 731.234 Q189.784 731.789 192.261 731.789 Q196.266 731.789 198.604 729.683 Q200.942 727.577 200.942 723.965 Q200.942 720.354 198.604 718.248 Q196.266 716.141 192.261 716.141 Q190.386 716.141 188.511 716.558 Q186.659 716.975 184.715 717.854 L184.715 700.493 Z" fill="#000000" fill-rule="nonzero" fill-opacity="1" /><path clip-path="url(#clip580)" d="M224.83 703.572 Q221.219 703.572 219.39 707.137 Q217.585 710.678 217.585 717.808 Q217.585 724.915 219.39 728.479 Q221.219 732.021 224.83 732.021 Q228.465 732.021 230.27 728.479 Q232.099 724.915 232.099 717.808 Q232.099 710.678 230.27 707.137 Q228.465 703.572 224.83 703.572 M224.83 699.868 Q230.64 699.868 233.696 704.475 Q236.775 709.058 236.775 717.808 Q236.775 726.535 233.696 731.141 Q230.64 735.725 224.83 735.725 Q219.02 735.725 215.941 731.141 Q212.886 726.535 212.886 717.808 Q212.886 709.058 215.941 704.475 Q219.02 699.868 224.83 699.868 Z" fill="#000000" fill-rule="nonzero" fill-opacity="1" /><path clip-path="url(#clip580)" d="M145.896 542.656 L175.571 542.656 L175.571 546.591 L145.896 546.591 L145.896 542.656 Z" fill="#000000" fill-rule="nonzero" fill-opacity="1" /><path clip-path="url(#clip580)" d="M189.692 555.55 L206.011 555.55 L206.011 559.485 L184.067 559.485 L184.067 555.55 Q186.729 552.795 191.312 548.165 Q195.918 543.513 197.099 542.17 Q199.344 539.647 200.224 537.911 Q201.127 536.152 201.127 534.462 Q201.127 531.707 199.182 529.971 Q197.261 528.235 194.159 528.235 Q191.96 528.235 189.506 528.999 Q187.076 529.763 184.298 531.314 L184.298 526.592 Q187.122 525.457 189.576 524.879 Q192.03 524.3 194.067 524.3 Q199.437 524.3 202.631 526.985 Q205.826 529.67 205.826 534.161 Q205.826 536.291 205.016 538.212 Q204.229 540.11 202.122 542.703 Q201.543 543.374 198.442 546.591 Q195.34 549.786 189.692 555.55 Z" fill="#000000" fill-rule="nonzero" fill-opacity="1" /><path clip-path="url(#clip580)" d="M215.872 524.925 L234.228 524.925 L234.228 528.86 L220.154 528.86 L220.154 537.332 Q221.173 536.985 222.191 536.823 Q223.21 536.638 224.228 536.638 Q230.015 536.638 233.395 539.809 Q236.775 542.98 236.775 548.397 Q236.775 553.976 233.302 557.077 Q229.83 560.156 223.511 560.156 Q221.335 560.156 219.066 559.786 Q216.821 559.415 214.414 558.675 L214.414 553.976 Q216.497 555.11 218.719 555.665 Q220.941 556.221 223.418 556.221 Q227.423 556.221 229.761 554.115 Q232.099 552.008 232.099 548.397 Q232.099 544.786 229.761 542.679 Q227.423 540.573 223.418 540.573 Q221.543 540.573 219.668 540.99 Q217.816 541.406 215.872 542.286 L215.872 524.925 Z" fill="#000000" fill-rule="nonzero" fill-opacity="1" /><path clip-path="url(#clip580)" d="M224.83 352.435 Q221.219 352.435 219.39 356 Q217.585 359.541 217.585 366.671 Q217.585 373.778 219.39 377.342 Q221.219 380.884 224.83 380.884 Q228.465 380.884 230.27 377.342 Q232.099 373.778 232.099 366.671 Q232.099 359.541 230.27 356 Q228.465 352.435 224.83 352.435 M224.83 348.731 Q230.64 348.731 233.696 353.338 Q236.775 357.921 236.775 366.671 Q236.775 375.398 233.696 380.004 Q230.64 384.588 224.83 384.588 Q219.02 384.588 215.941 380.004 Q212.886 375.398 212.886 366.671 Q212.886 357.921 215.941 353.338 Q219.02 348.731 224.83 348.731 Z" fill="#000000" fill-rule="nonzero" fill-opacity="1" /><path clip-path="url(#clip580)" d="M189.692 204.413 L206.011 204.413 L206.011 208.348 L184.067 208.348 L184.067 204.413 Q186.729 201.658 191.312 197.028 Q195.918 192.376 197.099 191.033 Q199.344 188.51 200.224 186.774 Q201.127 185.015 201.127 183.325 Q201.127 180.57 199.182 178.834 Q197.261 177.098 194.159 177.098 Q191.96 177.098 189.506 177.862 Q187.076 178.626 184.298 180.177 L184.298 175.455 Q187.122 174.32 189.576 173.742 Q192.03 173.163 194.067 173.163 Q199.437 173.163 202.631 175.848 Q205.826 178.533 205.826 183.024 Q205.826 185.154 205.016 187.075 Q204.229 188.973 202.122 191.566 Q201.543 192.237 198.442 195.454 Q195.34 198.649 189.692 204.413 Z" fill="#000000" fill-rule="nonzero" fill-opacity="1" /><path clip-path="url(#clip580)" d="M215.872 173.788 L234.228 173.788 L234.228 177.723 L220.154 177.723 L220.154 186.195 Q221.173 185.848 222.191 185.686 Q223.21 185.501 224.228 185.501 Q230.015 185.501 233.395 188.672 Q236.775 191.843 236.775 197.26 Q236.775 202.839 233.302 205.94 Q229.83 209.019 223.511 209.019 Q221.335 209.019 219.066 208.649 Q216.821 208.278 214.414 207.538 L214.414 202.839 Q216.497 203.973 218.719 204.528 Q220.941 205.084 223.418 205.084 Q227.423 205.084 229.761 202.978 Q232.099 200.871 232.099 197.26 Q232.099 193.649 229.761 191.542 Q227.423 189.436 223.418 189.436 Q221.543 189.436 219.668 189.853 Q217.816 190.269 215.872 191.149 L215.872 173.788 Z" fill="#000000" fill-rule="nonzero" fill-opacity="1" /><path clip-path="url(#clip580)" d="M79.6362 412.957 L96.9828 425.848 L115.284 412.289 L115.284 419.196 L101.28 429.572 L115.284 439.948 L115.284 446.855 L96.6326 433.009 L79.6362 445.677 L79.6362 438.77 L92.3358 429.317 L79.6362 419.864 L79.6362 412.957 Z" fill="#000000" fill-rule="nonzero" fill-opacity="1" /><polyline clip-path="url(#clip581)" style="stroke:#ff0000; stroke-linecap:round; stroke-linejoin:round; stroke-width:4; stroke-opacity:1; fill:none" points="272.643,640.532 279.548,519.023 286.453,564.146 293.358,495.981 300.263,527.551 307.168,524.462 314.073,540.473 320.979,609.787 327.884,546.059 334.789,432.745 341.694,403.702 348.599,253.582 355.504,462.77 362.409,499.815 369.314,455.048 376.219,383.328 383.124,349.273 390.03,325.569 396.935,217.451 403.84,207.74 410.745,159.937 417.65,163.462 424.555,136.577 431.46,150.844 438.365,68.8853 445.27,141.226 452.175,121.707 459.081,173.769 465.986,175.232 472.891,227.687 479.796,315.897 486.701,278.223 493.606,390.562 500.511,422.72 507.416,520.63 514.321,588.859 521.226,556.301 528.132,484.059 535.037,517.104 541.942,573.049 548.847,553.938 555.752,540.389 562.657,585.241 569.562,657.901 576.467,790.259 583.372,691.417 590.277,758.998 597.183,762.038 604.088,743.803 610.993,776.588 617.898,730.671 624.803,671.732 631.708,578.608 638.613,621.963 645.518,554.296 652.423,468.423 659.328,469.393 666.234,487.091 673.139,445.264 680.044,487.742 686.949,641.955 693.854,527.345 700.759,500.645 707.664,478.93 714.569,534.343 721.474,571.988 728.379,537.447 735.285,453.104 742.19,374.333 749.095,278.486 756,327.705 762.905,282.867 769.81,362.33 776.715,585.832 783.62,563.112 790.525,479.058 797.43,434.038 804.336,401.246 811.241,413.164 818.146,502.659 825.051,400.659 831.956,354.151 838.861,484.331 845.766,486.478 852.671,640.158 859.576,521.029 866.481,432.662 873.387,470.66 880.292,600.899 887.197,572.597 894.102,530.649 901.007,515.795 907.912,324.862 914.817,267.194 921.722,187.131 928.627,268.189 935.532,340.95 942.438,513.436 949.343,545.882 956.248,584.031 "/>
</svg>
